<?xml version="1.0" encoding="UTF-8"?>
<svg xmlns="http://www.w3.org/2000/svg" version="1.1" xmlns:xlink="http://www.w3.org/1999/xlink" viewBox="0 0 436.1 376">
  <!-- Generator: Adobe Illustrator 29.0.1, SVG Export Plug-In . SVG Version: 2.1.0 Build 192)  -->
  <defs>
    <style>
      .st0 {
        fill: #ffc9b1;
      }

      .st0, .st1, .st2, .st3, .st4, .st5 {
        stroke-miterlimit: 10;
      }

      .st0, .st1, .st3 {
        stroke-linecap: round;
      }

      .st0, .st2, .st3, .st5 {
        stroke: #3e4654;
      }

      .st0, .st3 {
        stroke-width: 6.7px;
      }

      .st6 {
        fill: #ff4e50;
      }

      .st7 {
        opacity: .2;
      }

      .st7, .st2, .st5, .st8 {
        fill: #3e4654;
      }

      .st1 {
        stroke: #fff;
        stroke-width: 8.4px;
      }

      .st1, .st3, .st9, .st4 {
        fill: none;
      }

      .st10 {
        opacity: .3;
      }

      .st2, .st4 {
        stroke-width: 5.1px;
      }

      .st11 {
        mix-blend-mode: soft-light;
      }

      .st4 {
        stroke: #0f2f46;
      }

      .st5 {
        stroke-width: 4.6px;
      }

      .st12 {
        isolation: isolate;
      }

      .st13 {
        opacity: .1;
      }

      .st14 {
        clip-path: url(#clippath);
      }
    </style>
    <clipPath id="clippath">
      <rect class="st9" x="-9.5" y="-12.3" width="455.1" height="151.3"/>
    </clipPath>
  </defs>
  <g class="st12">
    <g id="Capa_1">
      <g>
        <g class="st14">
          <g>
            <g class="st13">
              <path class="st4" d="M78.2,75.3h-3.4c-2,0-3.7,1.7-3.7,3.7v6.4c0,2-1.7,3.7-3.7,3.7h-3.6c-2,0-3.7-1.7-3.7-3.7v-10c0-1-.4-1.9-1.1-2.6-.7-.7-1.6-1.1-2.6-1.1-2,0-3.7,1.7-3.7,3.7v6.4c0,2-1.7,3.7-3.7,3.7h-2c-2,0-3.7-1.7-3.7-3.7v-2.1c0-2-1.7-3.7-3.7-3.7h-3.5l2.5-11.2c1.1-5.1,5.6-8.7,10.8-8.7h15.7c3.2,0,6.2,1.4,8.2,3.7,1.2,1.4,2.1,3.1,2.6,5l2.3,10.5Z"/>
              <line class="st4" x1="78.2" y1="75.3" x2="78.2" y2="75.3"/>
              <path class="st4" d="M93.2,143.9H21.2l2.3-10.3c1.2-.6,2-1.7,2.4-2.9h17.8c4.4,0,7.6-4.2,6.3-8.5l-8.9-30c-.4-1.4-1.3-2.6-2.4-3.4-1.1-.8-2.5-1.3-3.9-1.3s-.8,0-1.2.1l2.6-11.7h3.5c2,0,3.7,1.7,3.7,3.7v2.1c0,2,1.7,3.7,3.7,3.7h2c2,0,3.7-1.7,3.7-3.7v-6.4c0-2,1.7-3.7,3.7-3.7s1.9.4,2.6,1.1c.7.7,1.1,1.6,1.1,2.6v10c0,2,1.7,3.7,3.7,3.7h3.6c2,0,3.7-1.7,3.7-3.7v-6.4c0-2,1.7-3.7,3.7-3.7h3.4l15.1,68.6Z"/>
              <path class="st4" d="M152,143.9h-58.8l-15.1-68.6-2.3-10.5c-.4-1.9-1.3-3.6-2.6-5l1.7-7.5h4.7c2.8,0,5,2.2,5,5v2.9c0,2.8,2.2,5,5,5h2.7c2.8,0,5-2.2,5-5v-8.6c0-2.8,2.2-5,5-5s2.6.6,3.5,1.5c.9.9,1.5,2.1,1.5,3.5v13.5c0,2.8,2.2,5,5,5h4.9c2.8,0,5-2.2,5-5v-8.6c0-2.8,2.2-5,5-5h4.6l2.2,10.2,3.3,15.2s0,0,0,0l.7,3.1.7,3.4h0s13.3,60.7,13.3,60.7Z"/>
              <path class="st4" d="M131.7,51.4h-4.6c-2.8,0-5,2.2-5,5v8.6c0,2.8-2.2,5-5,5h-4.9c-2.8,0-5-2.2-5-5v-13.5c0-1.4-.6-2.6-1.5-3.5-.9-.9-2.1-1.5-3.5-1.5-2.8,0-5,2.2-5,5v8.6c0,2.8-2.2,5-5,5h-2.7c-2.8,0-5-2.2-5-5v-2.9c0-2.8-2.2-5-5-5h-4.7l3.3-15.1c1.5-6.8,7.6-11.7,14.6-11.7h21.2c7,0,13.1,4.9,14.6,11.7l3.1,14.2Z"/>
              <line class="st4" x1="131.7" y1="51.4" x2="131.7" y2="51.4"/>
              <path class="st4" d="M173.2,74.5h-3.4c-2.1,0-3.7,1.7-3.7,3.7v6.5c0,2.1-1.7,3.7-3.7,3.7h-3.7c-2.1,0-3.7-1.7-3.7-3.7v-10.1c0-1-.4-2-1.1-2.7-.7-.7-1.6-1.1-2.6-1.1-2.1,0-3.7,1.7-3.7,3.7v6.5c0,2.1-1.7,3.7-3.7,3.7h-2c-1.2,0-2.3-.6-3-1.5h0s-.7-3.4-.7-3.4l-.7-3.1s0,0,0,0l-3.3-15.2c1.8-3.9,5.7-6.5,10.2-6.5h15.9c5.3,0,9.8,3.7,10.9,8.8l2.3,10.7Z"/>
              <path class="st4" d="M188.5,143.9h-36.5l-13.3-60.7c.7.9,1.8,1.5,3,1.5h2c2.1,0,3.7-1.7,3.7-3.7v-6.5c0-2.1,1.7-3.7,3.7-3.7s2,.4,2.6,1.1c.7.7,1.1,1.6,1.1,2.7v10.1c0,2.1,1.7,3.7,3.7,3.7h3.7c2.1,0,3.7-1.7,3.7-3.7v-6.5c0-2.1,1.7-3.7,3.7-3.7h3.4l15.3,69.5Z"/>
              <line class="st4" x1="173.3" y1="74.5" x2="173.2" y2="74.5"/>
              <line class="st4" x1="34.7" y1="130.7" x2="34.7" y2="144"/>
              <path class="st4" d="M43.6,130.7h-17.9c-.6,0-1.1,0-1.6-.2-3.5-.9-5.8-4.6-4.7-8.3l2.3-7.7,6.6-22.3c.7-2.4,2.7-4.2,5.1-4.6.4,0,.8-.1,1.2-.1,1.5,0,2.8.5,3.9,1.3,1.1.8,2,2,2.4,3.4l8.9,30c1.3,4.2-1.9,8.5-6.3,8.5Z"/>
              <path class="st4" d="M25.8,130.7c-.4,1.3-1.2,2.3-2.4,2.9-.7.4-1.4.6-2.3.6H8c-3.2,0-5.6-3.1-4.6-6.2l6.6-22.1c.6-2,2.5-3.4,4.6-3.4s2.1.4,2.9,1,1.4,1.5,1.7,2.5l2.6,8.6-2.3,7.7c-1.1,3.7,1.2,7.4,4.7,8.3.5.1,1.1.2,1.6.2h0Z"/>
              <line class="st4" x1="14.6" y1="134.2" x2="14.6" y2="144"/>
            </g>
            <g class="st13">
              <path class="st4" d="M343.8,62.1h4c2.4,0,4.4,2,4.4,4.4v7.6c0,2.4,2,4.4,4.4,4.4h4.3c2.4,0,4.4-2,4.4-4.4v-11.9c0-1.2.5-2.3,1.3-3.1.8-.8,1.9-1.3,3.1-1.3,2.4,0,4.4,2,4.4,4.4v7.6c0,2.4,2,4.4,4.4,4.4h2.3c2.4,0,4.4-2,4.4-4.4v-2.5c0-2.4,2-4.4,4.4-4.4h4.2s-2.9-13.3-2.9-13.3c-1.3-6-6.7-10.3-12.8-10.3h-18.7c-3.8,0-7.4,1.7-9.8,4.4-1.5,1.6-2.6,3.7-3.1,6l-2.8,12.5Z"/>
              <line class="st4" x1="343.8" y1="62.1" x2="343.7" y2="62.1"/>
              <path class="st4" d="M325.8,143.7h85.7s-2.7-12.3-2.7-12.3c-1.4-.7-2.4-2-2.8-3.5h-21.2c-5.2,0-9-5-7.5-10.1l10.6-35.7c.5-1.7,1.5-3.1,2.8-4,1.3-1,2.9-1.6,4.7-1.6s.9,0,1.4.1l-3-13.9h-4.2c-2.4,0-4.4,2-4.4,4.4v2.5c0,2.4-2,4.4-4.4,4.4h-2.3c-2.4,0-4.4-2-4.4-4.4v-7.6c0-2.4-2-4.4-4.4-4.4s-2.3.5-3.1,1.3c-.8.8-1.3,1.9-1.3,3.1v11.9c0,2.4-2,4.4-4.4,4.4h-4.3c-2.4,0-4.4-2-4.4-4.4v-7.6c0-2.4-2-4.4-4.4-4.4h-4s-17.9,81.6-17.9,81.6Z"/>
              <path class="st4" d="M255.9,143.7h69.9s17.9-81.6,17.9-81.6l2.8-12.5c.5-2.3,1.6-4.3,3.1-6l-2-8.9h-5.6c-3.3,0-5.9,2.7-5.9,5.9v3.4c0,3.3-2.7,5.9-5.9,5.9h-3.2c-3.3,0-5.9-2.7-5.9-5.9v-10.3c0-3.3-2.7-5.9-5.9-5.9s-3.1.7-4.2,1.7c-1.1,1.1-1.7,2.6-1.7,4.2v16.1c0,3.3-2.7,5.9-5.9,5.9h-5.8c-3.3,0-5.9-2.7-5.9-5.9v-10.3c0-3.3-2.7-5.9-5.9-5.9h-5.5s-2.7,12.1-2.7,12.1l-4,18.1s0,0,0,0l-.8,3.7-.9,4h0s-15.9,72.2-15.9,72.2Z"/>
              <path class="st4" d="M280.1,33.6h5.5c3.3,0,5.9,2.7,5.9,5.9v10.3c0,3.3,2.7,5.9,5.9,5.9h5.8c3.3,0,5.9-2.7,5.9-5.9v-16.1c0-1.6.7-3.1,1.7-4.2,1.1-1.1,2.6-1.7,4.2-1.7,3.3,0,5.9,2.7,5.9,5.9v10.3c0,3.3,2.7,5.9,5.9,5.9h3.2c3.3,0,5.9-2.7,5.9-5.9v-3.4c0-3.3,2.7-5.9,5.9-5.9h5.6s-3.9-18-3.9-18c-1.8-8.1-9-13.9-17.3-13.9h-25.2c-8.3,0-15.5,5.8-17.3,13.9l-3.7,16.9Z"/>
              <line class="st4" x1="280.1" y1="33.6" x2="280.1" y2="33.6"/>
              <path class="st4" d="M230.7,61.1h4.1c2.5,0,4.5,2,4.5,4.4v7.7c0,2.5,2,4.5,4.4,4.5h4.4c2.5,0,4.5-2,4.5-4.5v-12.1c0-1.2.5-2.3,1.3-3.2.8-.8,1.9-1.3,3.1-1.3,2.5,0,4.5,2,4.5,4.5v7.7c0,2.5,2,4.4,4.5,4.4h2.4c1.5,0,2.7-.7,3.6-1.8h0s.9-4.1.9-4.1l.8-3.7s0,0,0,0l4-18.1c-2.1-4.6-6.8-7.8-12.1-7.8h-18.9c-6.3,0-11.7,4.3-13,10.5l-2.8,12.7Z"/>
              <path class="st4" d="M212.5,143.7h43.4s15.9-72.1,15.9-72.1c-.8,1.1-2.1,1.8-3.6,1.8h-2.4c-2.5,0-4.5-2-4.5-4.4v-7.7c0-2.5-2-4.5-4.5-4.5s-2.3.5-3.1,1.3c-.8.8-1.3,1.9-1.3,3.2v12.1c0,2.5-2,4.5-4.5,4.5h-4.4c-2.5,0-4.4-2-4.4-4.5v-7.7c0-2.5-2-4.4-4.5-4.4h-4.1s-18.2,82.6-18.2,82.6Z"/>
              <line class="st4" x1="230.7" y1="61.1" x2="230.6" y2="61.1"/>
              <line class="st4" x1="395.5" y1="128" x2="395.5" y2="143.7"/>
              <path class="st4" d="M384.8,128h21.3c.7,0,1.3,0,1.9-.2,4.2-1.1,6.9-5.4,5.6-9.8l-2.7-9.2-7.9-26.5c-.9-2.9-3.3-5-6.1-5.5-.4,0-.9-.1-1.4-.1-1.7,0-3.4.6-4.7,1.6-1.3,1-2.3,2.4-2.8,4l-10.6,35.7c-1.5,5,2.3,10.1,7.5,10.1Z"/>
              <path class="st4" d="M406,128c.4,1.5,1.4,2.8,2.8,3.5.8.4,1.7.7,2.7.7h15.6c3.8,0,6.6-3.7,5.5-7.4l-7.8-26.2c-.7-2.4-3-4.1-5.5-4.1-1.3,0-2.5.4-3.4,1.1s-1.7,1.7-2.1,3l-3,10.2,2.7,9.2c1.3,4.4-1.4,8.8-5.6,9.8-.6.2-1.3.2-1.9.2h0Z"/>
              <line class="st4" x1="419.4" y1="132.2" x2="419.4" y2="143.7"/>
            </g>
          </g>
        </g>
        <g>
          <g>
            <g>
              <path class="st6" d="M128.5,65.4l1.4-3.1c3.9-8.3,12.4-13.7,21.5-13.7s6.9.8,10.1,2.3c5.8,2.7,10.1,7.5,12.3,13.5,2.2,6,1.8,12.4-.9,18.2l-1.4,3.1-43.1-20.3Z"/>
              <path class="st8" d="M151.5,52.1c2.9,0,5.9.6,8.7,1.9,10.2,4.8,14.6,17,9.8,27.2l-37-17.4c3.5-7.4,10.8-11.7,18.5-11.7M151.5,45.3h0c-10.5,0-20.1,6.1-24.6,15.6l-2.9,6.1,6.1,2.9,37,17.4,6.1,2.9,2.9-6.1c6.4-13.6.5-29.8-13-36.1-3.7-1.7-7.5-2.6-11.6-2.6h0Z"/>
            </g>
            <g class="st10">
              <path class="st8" d="M170.4,80.2c-.1.3-.3.7-.4,1l-4.6-2.1c0-7.2-4-14.1-10.7-17.7-.3-.2-.7-.3-1-.5-6.6-3.1-14.1-2.4-19.8,1.4,3.7-6.4,10.4-10.1,17.5-10.1,3,0,6,.6,8.9,1.9.3.2.7.3,1,.5,9.2,4.9,13.2,16,9.2,25.7Z"/>
            </g>
            <g>
              <path class="st6" d="M147.5,26.5l3.2-1.1c3.8-1.4,7.7-2,11.7-2,14.5,0,27.6,9.2,32.5,22.8,6.4,17.9-2.9,37.7-20.8,44.2l-3.2,1.1-23.4-64.9Z"/>
              <path class="st8" d="M162.3,26.6c12.8,0,24.7,7.9,29.3,20.6,5.8,16.2-2.6,34-18.8,39.8l-21.1-58.6c3.5-1.3,7-1.8,10.5-1.8M162.3,19.9c-4.4,0-8.7.8-12.8,2.2l-6.3,2.3,2.3,6.3,21.1,58.6,2.3,6.3,6.3-2.3c9.5-3.4,17.1-10.4,21.4-19.5,4.3-9.2,4.8-19.4,1.4-29-5.4-15-19.7-25.1-35.6-25.1h0Z"/>
            </g>
            <g class="st10">
              <path class="st8" d="M191.6,47.2c4.7,13.1.1,27.2-10.3,35.2,5.6-8,7.3-18.5,3.8-28.4s-18-21.5-31.5-20.5l-1.8-5.1c16.2-5.8,34,2.6,39.8,18.8Z"/>
            </g>
          </g>
          <g>
            <g>
              <g>
                <path class="st6" d="M133.2,226.4c-14.3,0-27.2-9.1-32.1-22.6-3.1-8.6-2.6-17.8,1.2-26.1s10.7-14.5,19.3-17.6c3.7-1.3,7.6-2,11.5-2,14.3,0,27.2,9.1,32.1,22.5,3.1,8.6,2.6,17.8-1.2,26.1-3.9,8.2-10.7,14.5-19.3,17.6-3.7,1.3-7.6,2-11.5,2Z"/>
                <path class="st8" d="M133.2,161.6c12.6,0,24.4,7.8,28.9,20.3,5.7,16-2.5,33.6-18.5,39.3-3.4,1.2-6.9,1.8-10.4,1.8-12.6,0-24.4-7.8-28.9-20.3-5.7-16,2.5-33.6,18.5-39.3,3.4-1.2,6.9-1.8,10.4-1.8M133.2,154.8v6.7-6.7h0c-4.3,0-8.6.7-12.7,2.2-19.4,7-29.6,28.5-22.6,47.9,5.3,14.8,19.5,24.8,35.2,24.8s8.6-.7,12.7-2.2c9.4-3.4,16.9-10.2,21.2-19.3,4.3-9.1,4.7-19.2,1.4-28.6-5.3-14.8-19.5-24.8-35.2-24.8h0Z"/>
              </g>
              <g>
                <path class="st8" d="M133.2,212.1c-8.3,0-15.8-5.3-18.7-13.1-3.7-10.3,1.7-21.7,11.9-25.4,2.2-.8,4.4-1.2,6.7-1.2,8.3,0,15.8,5.3,18.7,13.1,3.7,10.3-1.7,21.7-11.9,25.4-2.2.8-4.4,1.2-6.7,1.2Z"/>
                <path class="st6" d="M133.2,175c7.1,0,13.7,4.4,16.3,11.5,3.2,9-1.4,18.9-10.4,22.1-1.9.7-3.9,1-5.9,1-7.1,0-13.7-4.4-16.3-11.5-3.2-9,1.4-18.9,10.4-22.1,1.9-.7,3.9-1,5.9-1M133.2,169.9h0c-2.6,0-5.1.4-7.6,1.3-11.6,4.2-17.6,17-13.5,28.6,3.2,8.8,11.6,14.8,21,14.8s5.1-.4,7.6-1.3c11.6-4.2,17.6-17,13.5-28.6-3.2-8.8-11.6-14.8-21-14.8h0Z"/>
              </g>
            </g>
            <g class="st10">
              <path class="st8" d="M104.3,202.7c-.3-.8-.5-1.5-.7-2.3,6.5,14.5,23.2,21.7,38.4,16.2,15.2-5.5,23.4-21.7,19.2-37,.3.7.6,1.5.9,2.3,5.7,16-2.5,33.6-18.5,39.3s-33.6-2.5-39.3-18.5Z"/>
            </g>
          </g>
          <g>
            <g>
              <g>
                <path class="st6" d="M287.8,170.7c-14.3,0-27.2-9.1-32.1-22.5-6.4-17.7,2.8-37.3,20.5-43.6,3.7-1.3,7.6-2,11.5-2,14.3,0,27.2,9.1,32.1,22.5,3.1,8.6,2.6,17.8-1.2,26.1-3.9,8.2-10.7,14.5-19.3,17.6-3.7,1.3-7.6,2-11.5,2Z"/>
                <path class="st8" d="M287.8,105.9c12.6,0,24.4,7.8,28.9,20.3,5.7,16-2.5,33.6-18.5,39.3-3.4,1.2-6.9,1.8-10.4,1.8-12.6,0-24.4-7.8-28.9-20.3-5.7-16,2.5-33.6,18.5-39.3,3.4-1.2,6.9-1.8,10.4-1.8M287.8,99.1v6.7-6.7h0c-4.3,0-8.6.7-12.7,2.2-9.4,3.4-16.9,10.2-21.2,19.3-4.3,9.1-4.7,19.2-1.4,28.6,5.3,14.8,19.5,24.8,35.2,24.8s8.6-.7,12.7-2.2c19.4-7,29.6-28.5,22.6-47.9-5.3-14.8-19.5-24.8-35.2-24.8h0Z"/>
              </g>
              <circle class="st8" cx="287.8" cy="136.6" r="17.3"/>
            </g>
            <g class="st10">
              <circle class="st8" cx="287.8" cy="136.6" r="30.7"/>
            </g>
          </g>
          <g>
            <g>
              <path class="st6" d="M147.8,264.6c-.7,0-1.3,0-2-.1l-57.6-6.8c-4.5-.5-8.5-2.9-11.2-6.6-3-4.1-4.2-9.4-3.3-14.6l1.4-8.1c1.6-8.9,8.8-15.4,17.2-15.4s2.5.1,3.7.4l56.4,13.4c9.2,2.2,15.1,11.8,13.3,21.8-1.6,9.3-9.2,16-18,16Z"/>
              <path class="st8" d="M92.4,216.5c.9,0,1.9.1,2.9.3l56.4,13.4c7.4,1.7,12,9.5,10.6,17.7h0c-1.3,7.6-7.5,13.1-14.5,13.1s-1,0-1.5,0l-57.6-6.8c-7.7-.9-12.9-8.7-11.4-17l1.4-8.1c1.3-7.3,7.2-12.4,13.7-12.4M92.4,209.4h0c-10.2,0-18.9,7.7-20.8,18.3l-1.4,8.1c-1.1,6.2.4,12.5,4,17.4,3.4,4.5,8.2,7.4,13.7,8l57.6,6.8c.8,0,1.6.1,2.4.1,10.5,0,19.6-8,21.5-19,2.1-11.9-4.9-23.3-16-25.9l-56.4-13.4c-1.5-.4-3-.5-4.5-.5h0Z"/>
            </g>
            <g class="st10">
              <path class="st8" d="M77.2,237.1l1.4-8.1c.1-.7.3-1.4.5-2.1-.3,7.5,4.7,14,11.7,14.8l57.6,6.8c3.8.4,7.4-.8,10.3-3.1,1.3-1.1,2.5-2.4,3.4-3.9.4,2,.5,4.2.1,6.4-.7,4.1-2.8,7.6-5.7,9.9-2.9,2.3-6.5,3.5-10.3,3.1l-57.6-6.8c-7.7-.9-12.9-8.7-11.4-17Z"/>
            </g>
          </g>
          <g>
            <g>
              <path class="st6" d="M309.6,209.8c-4,0-8-1.3-11.4-3.6-8.3-5.8-10.9-16.5-6-24.5l30.4-49.4c3-4.8,8.3-7.7,14.2-7.7s7.6,1.2,10.9,3.5l6.8,4.7c4.3,3,7.2,7.6,7.9,12.5.7,4.5-.5,9-3.2,12.4l-35.8,45.5c-3.2,4.1-8.2,6.5-13.7,6.5Z"/>
              <path class="st8" d="M336.8,128c3,0,6.2.9,8.9,2.9l6.8,4.7c7,4.8,8.8,14,4,20.1l-35.8,45.5c-2.7,3.4-6.8,5.2-11.1,5.2s-6.5-1-9.4-3h0c-6.8-4.7-9-13.5-5-20l30.4-49.4c2.4-4,6.8-6.1,11.3-6.1M336.8,121.2h0c-7.1,0-13.5,3.5-17.1,9.3l-30.4,49.4c-5.8,9.5-2.8,22.3,6.9,29,4,2.8,8.6,4.2,13.3,4.2s12.5-2.8,16.4-7.8l35.8-45.5c3.3-4.2,4.7-9.6,3.9-15-.9-5.9-4.3-11.3-9.3-14.8l-6.8-4.7c-3.8-2.7-8.2-4.1-12.8-4.1h0Z"/>
            </g>
            <g class="st10">
              <path class="st8" d="M352.5,135.6l-6.8-4.7c-.6-.4-1.2-.8-1.9-1.1,5.5,5.1,6.6,13.2,2.3,18.7l-35.8,45.5c-2.3,3-5.8,4.7-9.5,5.1-1.7.2-3.4,0-5.2-.3,1.1,1.8,2.6,3.3,4.5,4.6,3.4,2.4,7.4,3.3,11,2.9,3.7-.4,7.1-2.1,9.5-5.1l35.8-45.5c4.8-6.1,3-15.3-4-20.1Z"/>
            </g>
          </g>
          <g>
            <g>
              <path class="st6" d="M196.6,324c-3.7,0-7.1-1.7-9.3-4.8-2.2-3-2.8-6.8-1.6-10.4l3.9-12v-37.4c0-15.9,12.9-28.8,28.8-28.8s28.8,12.9,28.8,28.8v44.8c0,10.8-8.8,19.7-19.7,19.7h-31Z"/>
              <path class="st8" d="M218.4,234c14.1,0,25.5,11.4,25.5,25.5v44.8c0,9-7.3,16.3-16.3,16.3h-31c-5.5,0-9.5-5.4-7.7-10.7l4.1-12.5v-37.9c0-14.1,11.4-25.5,25.5-25.5h0M218.4,227.3c-17.8,0-32.2,14.4-32.2,32.2v36.9l-3.8,11.4c-1.5,4.5-.7,9.5,2.1,13.4,2.8,3.9,7.3,6.2,12.1,6.2h31c12.7,0,23-10.3,23-23v-44.8c0-17.8-14.4-32.2-32.2-32.2h0Z"/>
            </g>
            <g class="st10">
              <path class="st8" d="M243.9,263.7v30.8h-8.8c-15.9,0-30.6-5.5-42.1-14.8v-16c0-14.1,11.4-25.5,25.5-25.5h0c14.1,0,25.5,11.4,25.5,25.5Z"/>
            </g>
          </g>
          <g>
            <g>
              <path class="st6" d="M300.9,293.1c-4.3,0-8.4-1.4-11.9-4l-35.7-27.1c-6.1-4.7-10.1-11.4-11.1-19.1-1-7.6,1-15.2,5.6-21.3,5.5-7.2,13.9-11.4,23-11.4s12.4,2,17.4,5.9l29.8,22.6,11.9,4.1c3.5,1.2,6.2,4,7.3,7.5,1.1,3.6.4,7.3-1.9,10.3l-18.8,24.7c-3.8,4.9-9.5,7.8-15.7,7.8Z"/>
              <path class="st8" d="M270.8,213.6c5.4,0,10.8,1.7,15.4,5.2l30.2,23,12.4,4.3c5.2,1.8,7.2,8.2,3.8,12.6l-18.8,24.7c-3.2,4.2-8.1,6.4-13,6.4s-6.9-1.1-9.9-3.3l-35.7-27.1c-11.2-8.5-13.4-24.5-4.9-35.7h0c5-6.6,12.6-10,20.3-10M270.8,206.8h0c-10.2,0-19.5,4.6-25.7,12.7-5.2,6.8-7.4,15.3-6.3,23.8,1.2,8.5,5.6,16.1,12.4,21.3l35.7,27.1c4,3.1,8.9,4.7,13.9,4.7,7.3,0,14-3.3,18.3-9.1l18.8-24.7c2.9-3.8,3.8-8.8,2.4-13.3s-4.9-8.2-9.4-9.8l-11.4-3.9-29.3-22.3c-5.7-4.3-12.4-6.6-19.5-6.6h0Z"/>
            </g>
            <g class="st10">
              <path class="st8" d="M332.6,258.7l-9.8,12.8c3.4-4.4,1.4-10.8-3.8-12.6l-12.4-4.3-6.5-4.9c-2.2,8.4-6,16.5-11.6,23.8l-5.3,7-24.5-18.6c-10.7-8.1-13.1-23-6-34,.4-.6.7-1.1,1.1-1.6,4.3-5.6,10.4-8.9,16.8-9.8,6.5-.9,13.2.7,18.8,5l26.8,20.4,12.4,4.3c5.2,1.8,7.2,8.2,3.8,12.6Z"/>
            </g>
          </g>
          <g>
            <path class="st6" d="M212,283.1c-29.8,0-56.5-18.8-66.6-46.8l-38.8-107.8c-7.7-21.4,3.4-45.1,24.9-52.8l83.3-30c4.5-1.6,9.2-2.5,14-2.5,17.4,0,33,11,38.9,27.3l38.8,107.8c6.4,17.8,5.5,37-2.6,54.1-8.1,17.1-22.3,30.1-40.1,36.5l-27.8,10c-7.7,2.8-15.8,4.2-24,4.2Z"/>
            <path class="st8" d="M228.7,46.5c15.5,0,30.1,9.6,35.7,25.1l38.8,107.8c12.6,35-5.6,73.7-40.6,86.3l-27.8,10c-7.5,2.7-15.3,4-22.8,4-27.6,0-53.5-17.1-63.4-44.6l-38.8-107.8c-7.1-19.7,3.1-41.4,22.8-48.5l83.3-30c4.2-1.5,8.6-2.3,12.8-2.3M228.7,39.8v6.7-6.7h0c-5.2,0-10.2.9-15.1,2.7l-83.3,30c-11.2,4-20.2,12.2-25.3,23-5.1,10.8-5.7,22.9-1.6,34.1l38.8,107.8c10.6,29.3,38.6,49.1,69.8,49.1s17-1.5,25.1-4.4l27.8-10c38.5-13.9,58.5-56.4,44.7-94.9l-38.8-107.8c-6.4-17.7-23.3-29.5-42-29.5h0Z"/>
          </g>
          <g class="st11">
            <line class="st1" x1="129.1" y1="148.6" x2="126.8" y2="142.1"/>
            <path class="st1" d="M122.4,130.1c-6.6-18.4,1.7-37.7,22.9-43.6"/>
          </g>
          <path class="st0" d="M273.6,135.9c3.7,10.3,2.9,21.1-1.4,30.3-4.3,9.2-12.1,16.7-22.4,20.4l-2.6.9c1.6,2.1,2.8,4.4,3.8,6.9l1.3,3.6c4.8,13.5-2.1,28.3-15.6,33.2l-3.6,1.3c-13.5,4.8-28.3-2.1-33.2-15.6l-1.3-3.6c-.9-2.6-1.4-5.2-1.5-7.7l-2.6.9c-20.6,7.4-43.3-3.3-50.7-23.9s-2.9-21.1,1.4-30.3c4.3-9.2,12.1-16.7,22.4-20.4l55.3-19.9c20.6-7.4,43.3,3.3,50.7,23.9Z"/>
          <path class="st8" d="M192.8,165c3,8.3-1.3,17.5-9.6,20.5-8.3,3-17.5-1.3-20.5-9.6l30.1-10.8Z"/>
          <path class="st8" d="M255.4,142.4c3,8.3-1.3,17.5-9.6,20.5-8.3,3-17.5-1.3-20.5-9.6l30.1-10.8Z"/>
          <rect class="st8" x="208.5" y="188.5" width="7.5" height="14.2" rx="3.8" ry="3.8" transform="translate(-55 304.4) rotate(-64.8)"/>
          <rect class="st8" x="225.2" y="182.5" width="7.5" height="14.2" rx="3.8" ry="3.8" transform="translate(102.5 -79.4) rotate(25.2)"/>
          <rect class="st2" x="221.1" y="93.6" width="11.7" height="33.9" rx="5.9" ry="5.9" transform="translate(254.1 -140.4) rotate(70.2)"/>
          <rect class="st5" x="158.4" y="116.2" width="11.7" height="33.9" rx="5.9" ry="5.9" transform="translate(233.9 -66.5) rotate(70.2)"/>
          <path class="st3" d="M262.1,202.7s-13.3-1.9-33.5,12.1c-20.2,14-33.5,12.1-33.5,12.1"/>
          <g class="st10">
            <path class="st8" d="M264.4,71.6l38.8,107.8c12.6,35-5.6,73.7-40.6,86.3l-27.8,10c-.3.1-.6.2-.9.3,34.4-13,52.2-51.2,39.7-85.9l-38.8-107.8c-7.1-19.7-28.8-29.9-48.5-22.8l29.6-10.7c19.7-7.1,41.4,3.1,48.5,22.8Z"/>
          </g>
        </g>
        <ellipse class="st7" cx="218.1" cy="367.4" rx="120.2" ry="8.6"/>
      </g>
    </g>
  </g>
</svg>