<?xml version="1.0" encoding="UTF-8"?>
<svg xmlns="http://www.w3.org/2000/svg" version="1.1" xmlns:xlink="http://www.w3.org/1999/xlink" viewBox="0 0 1080 957.5">
  <!-- Generator: Adobe Illustrator 29.0.1, SVG Export Plug-In . SVG Version: 2.1.0 Build 192)  -->
  <defs>
    <style>
      .st0 {
        fill: #ff4e50;
      }

      .st1 {
        opacity: .3;
      }

      .st2 {
        fill: #69e36c;
      }

      .st3 {
        mix-blend-mode: soft-light;
      }

      .st4 {
        fill: #58cc02;
      }

      .st5, .st6, .st7, .st8 {
        fill: none;
      }

      .st9 {
        isolation: isolate;
      }

      .st10 {
        fill: #ffc9b1;
      }

      .st10, .st6, .st11, .st7, .st8 {
        stroke-miterlimit: 10;
      }

      .st10, .st11, .st7 {
        stroke: #3e4654;
      }

      .st10, .st7, .st8 {
        stroke-linecap: round;
        stroke-width: 16px;
      }

      .st6 {
        stroke: #58cc02;
        stroke-width: 12px;
      }

      .st11 {
        stroke-width: 10px;
      }

      .st11, .st12 {
        fill: #3e4654;
      }

      .st13 {
        fill: #89e219;
      }

      .st8 {
        stroke: #fff;
      }

      .st14 {
        clip-path: url(#clippath);
      }
    </style>
    <clipPath id="clippath">
      <rect class="st5" y="0" width="1080" height="957.5"/>
    </clipPath>
  </defs>
  <g class="st9">
    <g id="Capa_1">
      <g class="st14">
        <g>
          <path class="st2" d="M-28.82,552.19c-.81,2.62-11.65.57-14.2.05-12.78-2.61-21.54-9.3-24.48-22.41-.83-3.7-2.56-19.23,1.2-20.49.5-.17,9.17.72,10.41.92,11.22,1.84,27.07,11.37,27.07,24.24,0,3.66.75,15.29,0,17.69Z"/>
          <g>
            <g>
              <path class="st13" d="M-309.26,486.28v189.32c16.37-4.17,29.96-14.83,39.81-28.31v13.71c0,1.24,3.13,9.34,3.95,11.09,7.03,14.91,23.91,28.31,38.83,34.54,9.77-12.94,17.32-27.95,19.17-44.3,10.87,9.09,25.13,8.4,38,4.37-1.18-9.56-5.55-23.31-13.82-29-1.49-1.02-9.11-4.56-10.47-4.56h-15.49l2.67-15.93c14.58,7.69,32.08,6.92,47.39,1.82-.49-13.97-6.56-28.61-16.42-38.53,18.39-8.56,35.02-23.5,37.15-44.68,2.04-.5,1.46.41,2.01,1.12,6.9,8.79,12.27,19.83,22.14,26.19,21.64-16.09,43.52-40.83,39.54-69.76,15.07,7.03,32.59,12.39,49.15,9.78,3.74-24.61.57-57.81-25.26-69.07-.57-.74,3.32-6.65,4.04-7.86,1.71-2.88,10.68-17.77,12.25-18.72,2-1.2,10.51-1.31,13.95-1.97,4.54-.9,10.41-2.89,14.58-4.89,1.82-.88,7.85-5.5,8.68-5.5,2,0,8.29,9.8,10.21,11.95,1.54,1.73,6.75,7.85,8.78,7.14,2.89-1.01,13.9-11.75,16.42-14.63,9.96-11.39,18.13-25.92,16.36-41.58,10.99,2.78,22.1,5.79,33.62,5.3,1.07-10.43,2.56-20.89,1.79-31.44-.39-5.41-2.96-10.88-3.43-15.24-.16-1.32.09-1.45.68-2.45,2.34-3.99,11.69-10.57,15.1-14.56-.83,5.13-2.33,10.25-2.69,15.46-.27,3.96-.6,14.22.05,17.72.13.74.69,2.2,1.32,2.2h22.11c2.94,0,12-2.31,15.27-3.3,5.43-1.65,9.96-4.61,15.26-6.42-.35,3.26-4.43,13.27-1.78,15.49,1.29,1.07,11.89,3.71,14.33,4.25,11.31,2.47,21.88,2.77,33.45,2.36-.68,14.58,3.55,28.62,10.46,41.3,1.12,2.04,6.75,11.84,8.4,11.69,1.53-.14,10.03-5.35,12.03-6.61,15.51-9.75,30.26-25.04,31.8-44.27.44-5.49-.77-9.96-.66-15.27,5.61-1.15,11.36-1.37,16.89-3,4.78-1.4,8.4-4.36,13.08-5.05.35,22.99,24.88,35.64,45.12,37.65,6.2-15.3,8.32-35.46-1.93-49.45-2.86-3.93-7-6.02-9.59-8.98-.68-.77-1.15-.98-.87-2.22,3.38.27,12.22-5.77,14.42-5.21,1.35.35,5.9,5.88,7.77,7.33,8.89,6.9,22.16,11.26,33.22,12.8,3.74.52,15.4,1.82,18.34.86,1.53-.5,2.19-7.96,2.33-10.05.72-10.25-.66-20.51-2.64-30.53l40.58-1.65c7.34,24.16,34.54,35.45,57.53,38.74,3.55-9.62,5.22-19.82,6.29-30.01,8.43,2.37,16.54,6.15,25.64,5.32-2.15,8.32-4.09,17.47-4.4,26.09-.06,1.92-.52,10.66,1.48,11.09,4.73,1.05,13.45,1.12,18.4.85,20.73-1.12,26.7-5.85,42.46-16.81.75-.52.88-1.23,2.22-.87,2.17,17.82,15.05,34.06,28.64,45.06,12.99-10.46,24.8-23.53,29.77-39.76l7.6,9.64c18.09,16.97,44.44,20.29,68.38,19.45,2.22-15.79,1.32-32.18-2.56-47.67,6.15.06,12.9-1.07,18.76-2.91,4.81-1.51,13.59-7.27,17.08-7.71,1.95-.25,1.02.27,1.34,1.29,1.21,3.99,1.73,7.44,3.62,11.42,1.98,4.2,13.02,19.69,16.72,21.37,2.96,1.35,10.18-6.45,12.35-8.9,11.76-13.23,17.96-29.25,10.65-46.41,3.73,1.09,9.88-1.16,12.8-.9,1.2.11,15.79,12.82,18.76,14.88,10.96,7.66,23.89,14.14,37.43,15.22-3.19,3.71-19.41,21.29-18.46,25.02.69,2.69,18.79,14.74,22.29,16.7,5.87,3.27,12.52,6.61,19.16,7.83-.06,4.31-2.78,8-3.96,12.35-3.88,14.31-2.52,29.83.55,44.15,27.93-.49,61.24-12.71,65.36-44.15.77-.68,11.72,3.55,13.71,3.55h17.25c-3.85,13.53-.68,25.9,7.97,36.68,2.5,3.13,15.92,15.96,19.16,16.28,5.05.47,21.04-30.49,18.87-37.04l12,4.39c-.83,4.89-3.43,9.86-4.51,15.04-3.38,16.03-2.36,32.76,1.48,48.58,11.23.71,22.55-1.87,33.31-4.94,2.55-.74,7.44-3.66,9.47-3.7,1.98-.05,5.03,1.93,7.31,2.33,8.27,1.46,14.14.63,22.33-.66.74-11.4,5.5-23.95,16.03-29.54,2.11-1.12,9.88-4.07,11.84-4.07h16.36v14.59c0,4.73-5.72,16.42-9.29,19.89-3.79,3.7-14.77,8.16-19.89,8.85.52,1.9,4.66,7.88,4.36,9.2-.24.96-4.83,3.29-6.13,4.51-4.81,4.44-11.5,15.62-11.5,22.11v19.91h14.59c1.23,0,8.71-2.23,10.43-2.86,1.78-.65,10.6-5.68,11.25-5.11,1.35,7.16,4.48,14.28,8.49,20.27,1.18,1.76,7.2,8,6.56,8.92-5.88.57-29.79,23.2-29.05,26.86.63,3.16,16.18,15.11,19.74,17.41,12.94,8.32,28.42,13.9,43.8,9.7-5.69,13.6-6.53,28.8-4.37,43.3,15.84-.05,31.8-2.23,45.06-11.45.36,19.77,13.1,36.96,28.92,47.64,9-6.07,14.5-15.7,20.19-24.61,6.5,6.54,15.16,11.04,24.33,12.38l-9.31,7.03-13.62,14.75c6.04,9.06,16.23,13.9,24.58,20.4-5.69,13.59-6.89,28.75-4.37,43.23,29.98,2.86,60.06-11.4,61.12-44.73l16.8,17.69v-162.77c-.19.11-.42.27-.68.46-.25.2-.52.42-.82.69-.74.66-1.62,1.54-2.6,2.53-1.73,1.78-3.71,3.92-5.58,5.83-.42.44-.83.85-1.23,1.26-2.42,2.42-4.51,4.29-5.47,4.29-23.83-18.75-41.93-49.49-26.09-79.64-10.54-2.19-20.29-8.41-27.87-15.92-6.65,15.95-18.83,23.68-35.62,26.28-6.92,1.07-16.21,2.09-22.32-1.09v-14.15c0-2.94,2.31-12,3.3-15.27,1.42-4.7,3.35-6.94,5.11-10.84.57-1.23.68-1.32-.47-2.19-1.56-1.16-12-3.6-15.33-5.02-7.23-3.04-13.37-7.58-19.58-12.25-5.03,8.59-11.21,17.9-18.29,25.62-.6.64-1.2,1.27-1.81,1.89-.6.64-1.21,1.24-1.82,1.82-1.24,1.18-2.5,2.31-3.77,3.38-1.51,1.26-5.32,4.75-6.86,4.34-1.32-.36-3.57-2.2-6.17-4.78l-.88-.88c-.6-.61-1.21-1.26-1.82-1.92-.63-.66-1.24-1.35-1.87-2.06-5.68-6.32-11.62-13.9-13.45-16.69-.63-.96-1.38-2.19-2.19-3.57-.82-1.38-1.68-2.96-2.56-4.64v-.02c-1.78-3.35-3.59-7.11-5.02-10.65-.28-.71-.55-1.42-.82-2.12-.52-1.38-.96-2.71-1.31-3.93-.53-1.86-.83-3.51-.83-4.81v-19.91c-1.18.5-2.38.99-3.57,1.45-5.38,2.09-10.93,3.85-16.61,5.03-3.16.64-6.35,1.12-9.56,1.37-.19.02-.42.03-.69.05-.25.02-.55.03-.88.05-.31.02-.68.03-1.05.05h-.02c-.38.02-.77.03-1.18.05-6.04.19-16.15.2-17.54-1.16-2.37-2.39-.63-19.77-.09-24.02,1.82-14.19,6.68-27.55,16.04-37.23.85-.88,1.73-1.73,2.66-2.55,1.38-1.23,2.86-2.37,4.44-3.44,1.56-1.09,3.21-2.08,4.97-2.97,1.16-.6,2.36-1.16,3.62-1.68l-15.4-27.93v-.02c-3.57-.71-7.11-1.46-10.6-2.34-.87-.22-1.73-.44-2.59-.69-1.73-.47-3.43-.99-5.11-1.57-7.56-2.56-14.64-6.23-20.68-12.09-2.75,2.91-16.92,19.34-19.44,19.42-4.37.11-19.64-19.23-22.43-23.61-2.91-4.58-9.89-18.79-9.89-23.72v-14.59c-11.18,3.24-22.79,4.12-34.41,3.44-1.48-9.92-1.65-19.8-.47-29.55.17-1.43.38-2.86.61-4.28.22-1.42.49-2.83.79-4.25.87-4.25,2.01-8.46,3.43-12.64-4.55-5.82-9.36-11.73-15.05-16.42,1.23,7.82,1.95,15.77,1.59,23.65-.09,2.06-.27,4.1-.52,6.13-.08.68-.17,1.37-.28,2.04-.2,1.35-.46,2.71-.74,4.06-13.6,1.15-27.59-1.01-40.32-5.77-5.3,3.21-10.08,7.3-15.24,10.76-1.02.69-2.08,1.35-3.15,1.98-2.14,1.26-4.37,2.36-6.75,3.22.24,1.07.5,2.14.79,3.19.71,2.64,1.53,5.25,2.31,7.86,1.45,4.7,2.88,9.42,3.65,14.34.38,2.41,1.64,9.44,1.12,12.44-.05.33-.13.61-.24.83-.05.08-.08.16-.13.22-2.14,3.05-34.55,5.55-39.85,5.25-3.66-.2-15.29-3.1-17.5-2.52-.3.08-.61.25-.93.47-.2.16-.41.35-.61.57-2.91,2.93-6.07,10.77-9.17,10.33-3.3-.47-16.94-10.93-20.02-13.7-4.84-4.37-8.76-9.51-12.94-14.47-15.59-.52-31.11-2.42-44.1-11.62-3.32,9-5.36,16.01-12.82,22.55-3.19,2.8-10.22,6.67-17.58,9.64-.72.3-1.46.58-2.19.85-1.29.49-2.56.94-3.84,1.34-5.98,1.92-11.53,2.86-14.77,1.75-.06-.03-.14-.06-.2-.11-.08-.05-.14-.11-.2-.2-1.13-1.37-2.15-6.53-2.83-11.24-.13-.83-.24-1.65-.33-2.44-.03-.27-.06-.52-.09-.77-.06-.5-.13-.99-.17-1.45-.17-1.6-.28-2.88-.3-3.52-.2-6.26.74-11.65,1.97-17.25.2-.93.41-1.86.63-2.8.33-1.4.66-2.83.99-4.31h-.02c-13.49.22-27.1-3.38-38.47-10.63-2.41,8.26-5.8,16.1-10.03,23.61-2.56,4.56-9,15.13-12.53,18.45-.66.61-.87,1.27-2.04,1.16-2.12-.2-10.43-6.01-12.74-7.63-8.3-5.77-16.51-13.04-23.12-21.44-1.42-1.79-2.75-3.65-4.01-5.55-6.59-9.97-10.73-21.28-10.29-33.36-.49-.57-10.93,6.61-12.49,7.41-6.97,3.54-15.15,6.29-23.34,7.85-1.64.31-3.27.58-4.89.79h-.02c-3.26.42-6.48.66-9.59.66h-.02c-.11-.42-.2-.85-.31-1.29-.05-.27-.13-.55-.19-.82-.24-1.04-.47-2.08-.69-3.15-.63-3-1.18-6.12-1.62-9.31-.17-1.26-.33-2.55-.47-3.84-1.46-13.67-.71-28.15,4.81-39.6,1.7-3.52,9.2-11.69,9.7-13.31,1.26-4.01.8-10.9,1.95-15.29-5.91,3.52-12.39,7.63-18.97,9.77-1.7.55-8.65,2.61-9.77,2.61h-12.83c3.02,12.8,3.26,25.87,1.78,38.92-.97.03-1.97.06-2.96.09-5.72.13-11.8-.08-17.87-.77-.55-.06-1.12-.13-1.68-.2-2.22-.28-4.45-.63-6.65-1.07-.35-.06-.69-.13-1.04-.2-3.1-.64-6.13-1.43-9.09-2.42-.82-.25-1.62-.55-2.42-.83-1.34-.5-2.64-1.04-3.92-1.62-.65-.27-1.27-.57-1.89-.88-3.08-1.51-5.99-3.29-8.67-5.35-1.82-1.42-8.19-9.66-10.18-7.97-1.12,4.58-2.82,8.93-4.95,13.08-.8,1.56-1.67,3.08-2.59,4.58-3.4,5.46-7.55,10.51-12.14,15.1-1.67,1.67-3.38,3.29-5.16,4.83-1.76,1.54-3.57,3.04-5.39,4.45-.93.71-1.84,1.42-2.77,2.09-2.48-2.01-4.89-4.22-7.2-6.56-10.03-10.16-18.12-23.15-21.72-36.68-19.22,24-53.35,28.69-82.17,23.78-.38-7.99-.25-16.04.66-23.98.5-4.36,1.26-8.67,2.3-12.91,1.04-4.26,2.36-8.45,4.03-12.53-13.82-.13-26.33-6.76-37.6-14.14-.71,1.87-1.48,3.76-2.33,5.65-1.97,4.37-4.32,8.71-7.05,12.74-2.33,3.44-4.94,6.67-7.83,9.5-1.65,1.62-3.95,3.98-6.35,5.28-.44.24-.86.44-1.31.6-1.24.46-2.48.53-3.65.03-.36-.16-.88-.57-1.51-1.13-1.48-1.38-3.54-3.76-5.49-6.2-.33-.39-.66-.8-.97-1.21-.33-.39-.65-.8-.94-1.2s-.6-.77-.88-1.15c-.28-.36-.57-.72-.82-1.07-.27-.35-.5-.68-.72-.97-.24-.31-.44-.6-.61-.87-.28-.39-.5-.72-.68-.99-1.04-1.57-1.98-3.15-2.85-4.73-2-3.7-3.52-7.44-4.5-11.24-.28-1.09-.52-2.17-.71-3.27-.19-1.09-.33-2.19-.42-3.29-.25-2.93-.17-5.87.25-8.85.11-.74.24-1.48.39-2.22.24-1.12.5-2.23.83-3.37.31-1.13.69-2.26,1.13-3.4.42-1.13.91-2.28,1.45-3.43-.25-.27-2.71-.68-5.55-1.04-.2-.03-.39-.06-.58-.08-.24-.03-.47-.06-.71-.09-.49-.05-.98-.11-1.45-.16-1.01-.11-1.98-.2-2.88-.28-.2-.02-.41-.03-.6-.05-.13-.02-.25-.02-.36-.03-.19,0-.38-.02-.55-.03-.83-.05-1.46-.08-1.78-.03-.03-.02-.06,0-.09,0-.28.05-.72.3-1.26.66-2.34,1.56-6.59,5.44-8.32,6.62-8.02,5.5-16.17,10.35-24.85,13.93-2.55,1.05-5.16,2-7.8,2.83-.53.17-1.07.33-1.6.49-1.6.46-3.22.88-4.88,1.26-3.29.75-6.67,1.31-10.16,1.65l13.98,20.07c4.42,8.01,2.97,7.49-3.98,12.49-7.14,5.16-15.32,9.58-23.8,12.96-1.7.68-3.4,1.32-5.11,1.9-3.43,1.2-6.87,2.2-10.3,3.02,7.2,19.2,6.01,39.82-.09,59.15v.02c-1.82-.17-3.68-.39-5.54-.68-5.58-.82-11.24-2.06-16.75-3.81-2.75-.87-5.46-1.86-8.1-2.97-18.49-7.82-33.61-21.81-34.98-43.77-.96.17-1.9.35-2.85.52-1.89.35-3.74.64-5.58.91-.94.13-1.87.25-2.78.36-1.84.24-3.66.41-5.49.53-5.22.35-10.47.25-16.03-.57,3.55,16.86-3.65,31.04-15.92,42.04-2.63,2.36-13.67,10.63-16.53,10.9-1.1.11-2.91-1.9-4.8-4.59-.31-.44-.61-.88-.93-1.35-.91-1.4-1.82-2.91-2.67-4.36-.42-.72-.82-1.43-1.2-2.11-1.12-2.01-1.98-3.71-2.34-4.54-3.27-7.36-5.72-15.46-5.16-23.59-7.03,1.84-13.86,5.13-21.23,5.32-1.01,9.25-1.86,29.66-8.41,36.25-.38.39-.8.79-1.24,1.18-1.34,1.2-2.93,2.47-4.67,3.74-3.22,2.33-6.98,4.7-10.71,6.78-.68.38-1.35.75-2.03,1.1-3.71,1.95-7.27,3.54-10.13,4.42-14.28,4.47-26.94,2.44-39.76-4.83l-14.22,23.4c16.25,8.92,18.68,29.22,15.76,46.1-.22,1.29-.47,2.58-.75,3.82h-.02c-.52.02-1.07.03-1.59.03-.61,0-1.24,0-1.89-.03-.83-.03-1.67-.06-2.52-.13-1.2-.09-2.41-.22-3.62-.38-.55-.06-1.09-.14-1.64-.24-1.09-.16-2.17-.36-3.24-.6-.3-.05-.6-.11-.9-.19-3.99-.9-7.88-2.17-11.37-3.81-3.88-1.82-6.42-4.69-10.3-6.06-1.98,8.59-7.12,17.27-12.82,23.89-1.73,2.01-5.52,3.54-4.91,5.71,9.47,6.07,18.31,14.77,24.64,24.08,3.76,5.54,5.16,5.58,1.05,9.58-.41.39-.87.83-1.37,1.31-.79.74-1.6,1.46-2.44,2.17-2.11,1.79-4.36,3.52-6.75,5.19-1.43.99-2.91,1.97-4.44,2.88-.5.31-1.02.61-1.54.91-1.02.61-2.06,1.19-3.13,1.75-14.61,7.74-31.97,11.72-46.69,6.59,4.83,14.34,4.7,30.29,1.64,44.98v.02c-.55.03-1.09.05-1.62.06-2.67.06-5.33-.05-7.96-.3-.82-.08-1.65-.17-2.47-.28-4.21-.55-8.38-1.49-12.44-2.72-1.04-.31-2.06-.63-3.08-.99-1.04-.35-2.08-.72-3.1-1.1-.75-.28-1.51-.58-2.25-.88l-13.84-7.83v.02c-1.64,21.04-16.86,36.34-33.31,47.68-.61.11-1.62-.58-2.88-1.79-.11-.09-.2-.19-.31-.31-2.83-2.86-6.75-8.23-9.95-13.35-.63-.99-1.21-1.97-1.76-2.91-.44-.75-.87-1.49-1.24-2.2-.09-.19-.19-.36-.28-.53-.19-.35-.36-.69-.53-1.02-.17-.33-.33-.65-.47-.96-.14-.31-.28-.61-.42-.91-.13-.28-.25-.57-.35-.83-.06-.13-.11-.27-.16-.39-.09-.25-.17-.49-.25-.72-.17-.57-.27-1.04-.28-1.4-8.59,4.77-17.06,10.88-27.41,10.63,7.94,7.69,17.13,14.97,21.99,25.07-.74,3.73-20.6,16.73-25.52,17.38ZM1283.1,519.45c0-3.7,2.66-10.21,5.52-14.99.19-.33.39-.65.6-.96.17-.28.35-.55.52-.8.2-.3.39-.57.58-.83.11-.14.22-.28.31-.42.19-.25.38-.49.57-.71.24-.28.47-.55.71-.79,6.9-7.06,20.35-9.97,30.7-8.95,1.34.13,2.63.33,3.84.6v13.7c0,4.34-2.2,9.96-5.28,14.78-.35.54-.69,1.05-1.07,1.57-.36.52-.74,1.02-1.12,1.51-.38.49-.77.96-1.16,1.4-.2.24-.41.46-.6.66-.2.24-.41.44-.61.64-1.21,1.23-2.45,2.28-3.7,3.05-.41.25-1.21.65-2.22,1.1-.44.19-.91.39-1.4.61-.33.14-.68.28-1.02.43-.35.14-.71.28-1.07.44-3.26,1.31-6.78,2.56-7.74,2.56h-16.36v-14.61ZM225.05,107.18c1.46-1.71,7.71-8.1,9.47-8.24.46-.05,1.18.41,2.04,1.18.28.25.58.53.88.83,3.63,3.68,8.96,11.29,9.89,13.18,1.73,3.51,2.86,7.19,3.32,10.91.22,1.75.28,3.51.19,5.28-.09,2.06-.42,4.12-.98,6.15-.41,1.53-.94,3.04-1.62,4.51-1.62,3.57-12.71,18.56-16.42,17.83-.77-.16-5.8-5.43-6.73-6.53-1.62-1.92-3.02-3.84-4.23-5.74-.6-.96-1.15-1.9-1.67-2.85-6.54-12.25-4.7-24.16,5.85-36.53ZM66.74,204.55c2.52-3.24,12.91-12.66,16.54-13.6,1.4-.36,1.51-.03,2.42.77.47.41,1.16,1.32,1.93,2.45.17.25.35.52.52.79.09.14.19.28.27.42.27.42.53.85.82,1.31.82,1.34,1.62,2.74,2.26,3.95.28.53.55,1.04.77,1.46.22.44.39.82.52,1.12,3.57,8.45,4.14,15.9,2.36,22.43-.2.79-.46,1.56-.72,2.31-.85,2.26-1.97,4.44-3.35,6.46-1.38,2.04-3.04,3.98-4.91,5.8-3.74,3.65-8.4,6.86-13.71,9.66h-.02c-1.78-1.92-3.41-3.98-4.86-6.15-.36-.53-.71-1.09-1.05-1.64-.68-1.1-1.32-2.23-1.89-3.38-.3-.58-.57-1.16-.83-1.75-.53-1.16-.99-2.34-1.4-3.55-3.27-9.53-2.69-19.88,4.32-28.86ZM-282.07,482.07c9.72-1.64,15.98.3,23.24,6.42,10.35,8.71,12.47,12.22-.3,19.19-18.23,9.94-31.71,1.95-42.01-13.87,4.48-4.36,12.9-10.69,19.06-11.73Z"/>
              <path class="st6" d="M-309.26,486.28v189.32c16.37-4.17,29.96-14.83,39.81-28.31v13.71c0,1.24,3.13,9.34,3.95,11.09,7.03,14.91,23.91,28.31,38.83,34.54,9.77-12.94,17.32-27.95,19.17-44.3,10.87,9.09,25.13,8.4,38,4.37-1.18-9.56-5.55-23.31-13.82-29-1.49-1.02-9.11-4.56-10.47-4.56h-15.49l2.67-15.93c14.58,7.69,32.08,6.92,47.39,1.82-.49-13.97-6.56-28.61-16.42-38.53,18.39-8.56,35.02-23.5,37.15-44.68,2.04-.5,1.46.41,2.01,1.12,6.9,8.79,12.27,19.83,22.14,26.19,21.64-16.09,43.52-40.83,39.54-69.76,15.07,7.03,32.59,12.39,49.15,9.78,3.74-24.61.57-57.81-25.26-69.07-.57-.74,3.32-6.65,4.04-7.86,1.71-2.88,10.68-17.77,12.25-18.72,2-1.2,10.51-1.31,13.95-1.97,4.54-.9,10.41-2.89,14.58-4.89,1.82-.88,7.85-5.5,8.68-5.5,2,0,8.29,9.8,10.21,11.95,1.54,1.73,6.75,7.85,8.78,7.14,2.89-1.01,13.9-11.75,16.42-14.63,9.96-11.39,18.13-25.92,16.36-41.58,10.99,2.78,22.1,5.79,33.62,5.3,1.07-10.43,2.56-20.89,1.79-31.44-.39-5.41-2.96-10.88-3.43-15.24-.16-1.32.09-1.45.68-2.45,2.34-3.99,11.69-10.57,15.1-14.56-.83,5.13-2.33,10.25-2.69,15.46-.27,3.96-.6,14.22.05,17.72.13.74.69,2.2,1.32,2.2h22.11c2.94,0,12-2.31,15.27-3.3,5.43-1.65,9.96-4.61,15.26-6.42-.35,3.26-4.43,13.27-1.78,15.49,1.29,1.07,11.89,3.71,14.33,4.25,11.31,2.47,21.88,2.77,33.45,2.36-.68,14.58,3.55,28.62,10.46,41.3,1.12,2.04,6.75,11.84,8.4,11.69,1.53-.14,10.03-5.35,12.03-6.61,15.51-9.75,30.26-25.04,31.8-44.27.44-5.49-.77-9.96-.66-15.27,5.61-1.15,11.36-1.37,16.89-3,4.78-1.4,8.4-4.36,13.08-5.05.35,22.99,24.88,35.64,45.12,37.65,6.2-15.3,8.32-35.46-1.93-49.45-2.86-3.93-7-6.02-9.59-8.98-.68-.77-1.15-.98-.87-2.22,3.38.27,12.22-5.77,14.42-5.21,1.35.35,5.9,5.88,7.77,7.33,8.89,6.9,22.16,11.26,33.22,12.8,3.74.52,15.4,1.82,18.34.86,1.53-.5,2.19-7.96,2.33-10.05.72-10.25-.66-20.51-2.64-30.53l40.58-1.65c7.34,24.16,34.54,35.45,57.53,38.74,3.55-9.62,5.22-19.82,6.29-30.01,8.43,2.37,16.54,6.15,25.64,5.32-2.15,8.32-4.09,17.47-4.4,26.09-.06,1.92-.52,10.66,1.48,11.09,4.73,1.05,13.45,1.12,18.4.85,20.73-1.12,26.7-5.85,42.46-16.81.75-.52.88-1.23,2.22-.87,2.17,17.82,15.05,34.06,28.64,45.06,12.99-10.46,24.8-23.53,29.77-39.76l7.6,9.64c18.09,16.97,44.44,20.29,68.38,19.45,2.22-15.79,1.32-32.18-2.56-47.67,6.15.06,12.9-1.07,18.76-2.91,4.81-1.51,13.59-7.27,17.08-7.71,1.95-.25,1.02.27,1.34,1.29,1.21,3.99,1.73,7.44,3.62,11.42,1.98,4.2,13.02,19.69,16.72,21.37,2.96,1.35,10.18-6.45,12.35-8.9,11.76-13.23,17.96-29.25,10.65-46.41,3.73,1.09,9.88-1.16,12.8-.9,1.2.11,15.79,12.82,18.76,14.88,10.96,7.66,23.89,14.14,37.43,15.22-3.19,3.71-19.41,21.29-18.46,25.02.69,2.69,18.79,14.74,22.29,16.7,5.87,3.27,12.52,6.61,19.16,7.83-.06,4.31-2.78,8-3.96,12.35-3.88,14.31-2.52,29.83.55,44.15,27.93-.49,61.24-12.71,65.36-44.15.77-.68,11.72,3.55,13.71,3.55h17.25c-3.85,13.53-.68,25.9,7.97,36.68,2.5,3.13,15.92,15.96,19.16,16.28,5.05.47,21.04-30.49,18.87-37.04l12,4.39c-.83,4.89-3.43,9.86-4.51,15.04-3.38,16.03-2.36,32.76,1.48,48.58,11.23.71,22.55-1.87,33.31-4.94,2.55-.74,7.44-3.66,9.47-3.7,1.98-.05,5.03,1.93,7.31,2.33,8.27,1.46,14.14.63,22.33-.66.74-11.4,5.5-23.95,16.03-29.54,2.11-1.12,9.88-4.07,11.84-4.07h16.36v14.59c0,4.73-5.72,16.42-9.29,19.89-3.79,3.7-14.77,8.16-19.89,8.85.52,1.9,4.66,7.88,4.36,9.2-.24.96-4.83,3.29-6.13,4.51-4.81,4.44-11.5,15.62-11.5,22.11v19.91h14.59c1.23,0,8.71-2.23,10.43-2.86,1.78-.65,10.6-5.68,11.25-5.11,1.35,7.16,4.48,14.28,8.49,20.27,1.18,1.76,7.2,8,6.56,8.92-5.88.57-29.79,23.2-29.05,26.86.63,3.16,16.18,15.11,19.74,17.41,12.94,8.32,28.42,13.9,43.8,9.7-5.69,13.6-6.53,28.8-4.37,43.3,15.84-.05,31.8-2.23,45.06-11.45.36,19.77,13.1,36.96,28.92,47.64,9-6.07,14.5-15.7,20.19-24.61,6.5,6.54,15.16,11.04,24.33,12.38l-9.31,7.03-13.62,14.75c6.04,9.06,16.23,13.9,24.58,20.4-5.69,13.59-6.89,28.75-4.37,43.23,29.98,2.86,60.06-11.4,61.12-44.73l16.8,17.69v-162.77c-.19.11-.42.27-.68.46-.25.2-.52.42-.82.69-.74.66-1.62,1.54-2.6,2.53-1.73,1.78-3.71,3.92-5.58,5.83-.42.44-.83.85-1.23,1.26-2.42,2.42-4.51,4.29-5.47,4.29-23.83-18.75-41.93-49.49-26.09-79.64-10.54-2.19-20.29-8.41-27.87-15.92-6.65,15.95-18.83,23.68-35.62,26.28-6.92,1.07-16.21,2.09-22.32-1.09v-14.15c0-2.94,2.31-12,3.3-15.27,1.42-4.7,3.35-6.94,5.11-10.84.57-1.23.68-1.32-.47-2.19-1.56-1.16-12-3.6-15.33-5.02-7.23-3.04-13.37-7.58-19.58-12.25-5.03,8.59-11.21,17.9-18.29,25.62-.6.64-1.2,1.27-1.81,1.89-.6.64-1.21,1.24-1.82,1.82-1.24,1.18-2.5,2.31-3.77,3.38-1.51,1.26-5.32,4.75-6.86,4.34-1.32-.36-3.57-2.2-6.17-4.78l-.88-.88c-.6-.61-1.21-1.26-1.82-1.92-.63-.66-1.24-1.35-1.87-2.06-5.68-6.32-11.62-13.9-13.45-16.69-.63-.96-1.38-2.19-2.19-3.57-.82-1.38-1.68-2.96-2.56-4.64v-.02c-1.78-3.35-3.59-7.11-5.02-10.65-.28-.71-.55-1.42-.82-2.12-.52-1.38-.96-2.71-1.31-3.93-.53-1.86-.83-3.51-.83-4.81v-19.91c-1.18.5-2.38.99-3.57,1.45-5.38,2.09-10.93,3.85-16.61,5.03-3.16.64-6.35,1.12-9.56,1.37-.19.02-.42.03-.69.05-.25.02-.55.03-.88.05-.31.02-.68.03-1.05.05h-.02c-.38.02-.77.03-1.18.05-6.04.19-16.15.2-17.54-1.16-2.37-2.39-.63-19.77-.09-24.02,1.82-14.19,6.68-27.55,16.04-37.23.85-.88,1.73-1.73,2.66-2.55,1.38-1.23,2.86-2.37,4.44-3.44,1.56-1.09,3.21-2.08,4.97-2.97,1.16-.6,2.36-1.16,3.62-1.68l-15.4-27.93v-.02c-3.57-.71-7.11-1.46-10.6-2.34-.87-.22-1.73-.44-2.59-.69-1.73-.47-3.43-.99-5.11-1.57-7.56-2.56-14.64-6.23-20.68-12.09-2.75,2.91-16.92,19.34-19.44,19.42-4.37.11-19.64-19.23-22.43-23.61-2.91-4.58-9.89-18.79-9.89-23.72v-14.59c-11.18,3.24-22.79,4.12-34.41,3.44-1.48-9.92-1.65-19.8-.47-29.55.17-1.43.38-2.86.61-4.28.22-1.42.49-2.83.79-4.25.87-4.25,2.01-8.46,3.43-12.64-4.55-5.82-9.36-11.73-15.05-16.42,1.23,7.82,1.95,15.77,1.59,23.65-.09,2.06-.27,4.1-.52,6.13-.08.68-.17,1.37-.28,2.04-.2,1.35-.46,2.71-.74,4.06-13.6,1.15-27.59-1.01-40.32-5.77-5.3,3.21-10.08,7.3-15.24,10.76-1.02.69-2.08,1.35-3.15,1.98-2.14,1.26-4.37,2.36-6.75,3.22.24,1.07.5,2.14.79,3.19.71,2.64,1.53,5.25,2.31,7.86,1.45,4.7,2.88,9.42,3.65,14.34.38,2.41,1.64,9.44,1.12,12.44-.05.33-.13.61-.24.83-.05.08-.08.16-.13.22-2.14,3.05-34.55,5.55-39.85,5.25-3.66-.2-15.29-3.1-17.5-2.52-.3.08-.61.25-.93.47-.2.16-.41.35-.61.57-2.91,2.93-6.07,10.77-9.17,10.33-3.3-.47-16.94-10.93-20.02-13.7-4.84-4.37-8.76-9.51-12.94-14.47-15.59-.52-31.11-2.42-44.1-11.62-3.32,9-5.36,16.01-12.82,22.55-3.19,2.8-10.22,6.67-17.58,9.64-.72.3-1.46.58-2.19.85-1.29.49-2.56.94-3.84,1.34-5.98,1.92-11.53,2.86-14.77,1.75-.06-.03-.14-.06-.2-.11-.08-.05-.14-.11-.2-.2-1.13-1.37-2.15-6.53-2.83-11.24-.13-.83-.24-1.65-.33-2.44-.03-.27-.06-.52-.09-.77-.06-.5-.13-.99-.17-1.45-.17-1.6-.28-2.88-.3-3.52-.2-6.26.74-11.65,1.97-17.25.2-.93.41-1.86.63-2.8.33-1.4.66-2.83.99-4.31h-.02c-13.49.22-27.1-3.38-38.47-10.63-2.41,8.26-5.8,16.1-10.03,23.61-2.56,4.56-9,15.13-12.53,18.45-.66.61-.87,1.27-2.04,1.16-2.12-.2-10.43-6.01-12.74-7.63-8.3-5.77-16.51-13.04-23.12-21.44-1.42-1.79-2.75-3.65-4.01-5.55-6.59-9.97-10.73-21.28-10.29-33.36-.49-.57-10.93,6.61-12.49,7.41-6.97,3.54-15.15,6.29-23.34,7.85-1.64.31-3.27.58-4.89.79h-.02c-3.26.42-6.48.66-9.59.66h-.02c-.11-.42-.2-.85-.31-1.29-.05-.27-.13-.55-.19-.82-.24-1.04-.47-2.08-.69-3.15-.63-3-1.18-6.12-1.62-9.31-.17-1.26-.33-2.55-.47-3.84-1.46-13.67-.71-28.15,4.81-39.6,1.7-3.52,9.2-11.69,9.7-13.31,1.26-4.01.8-10.9,1.95-15.29-5.91,3.52-12.39,7.63-18.97,9.77-1.7.55-8.65,2.61-9.77,2.61h-12.83c3.02,12.8,3.26,25.87,1.78,38.92-.97.03-1.97.06-2.96.09-5.72.13-11.8-.08-17.87-.77-.55-.06-1.12-.13-1.68-.2-2.22-.28-4.45-.63-6.65-1.07-.35-.06-.69-.13-1.04-.2-3.1-.64-6.13-1.43-9.09-2.42-.82-.25-1.62-.55-2.42-.83-1.34-.5-2.64-1.04-3.92-1.62-.65-.27-1.27-.57-1.89-.88-3.08-1.51-5.99-3.29-8.67-5.35-1.82-1.42-8.19-9.66-10.18-7.97-1.12,4.58-2.82,8.93-4.95,13.08-.8,1.56-1.67,3.08-2.59,4.58-3.4,5.46-7.55,10.51-12.14,15.1-1.67,1.67-3.38,3.29-5.16,4.83-1.76,1.54-3.57,3.04-5.39,4.45-.93.71-1.84,1.42-2.77,2.09-2.48-2.01-4.89-4.22-7.2-6.56-10.03-10.16-18.12-23.15-21.72-36.68-19.22,24-53.35,28.69-82.17,23.78-.38-7.99-.25-16.04.66-23.98.5-4.36,1.26-8.67,2.3-12.91,1.04-4.26,2.36-8.45,4.03-12.53-13.82-.13-26.33-6.76-37.6-14.14-.71,1.87-1.48,3.76-2.33,5.65-1.97,4.37-4.32,8.71-7.05,12.74-2.33,3.44-4.94,6.67-7.83,9.5-1.65,1.62-3.95,3.98-6.35,5.28-.44.24-.86.44-1.31.6-1.24.46-2.48.53-3.65.03-.36-.16-.88-.57-1.51-1.13-1.48-1.38-3.54-3.76-5.49-6.2-.33-.39-.66-.8-.97-1.21-.33-.39-.65-.8-.94-1.2s-.6-.77-.88-1.15c-.28-.36-.57-.72-.82-1.07-.27-.35-.5-.68-.72-.97-.24-.31-.44-.6-.61-.87-.28-.39-.5-.72-.68-.99-1.04-1.57-1.98-3.15-2.85-4.73-2-3.7-3.52-7.44-4.5-11.24-.28-1.09-.52-2.17-.71-3.27-.19-1.09-.33-2.19-.42-3.29-.25-2.93-.17-5.87.25-8.85.11-.74.24-1.48.39-2.22.24-1.12.5-2.23.83-3.37.31-1.13.69-2.26,1.13-3.4.42-1.13.91-2.28,1.45-3.43-.25-.27-2.71-.68-5.55-1.04-.2-.03-.39-.06-.58-.08-.24-.03-.47-.06-.71-.09-.49-.05-.98-.11-1.45-.16-1.01-.11-1.98-.2-2.88-.28-.2-.02-.41-.03-.6-.05-.13-.02-.25-.02-.36-.03-.19,0-.38-.02-.55-.03-.83-.05-1.46-.08-1.78-.03-.03-.02-.06,0-.09,0-.28.05-.72.3-1.26.66-2.34,1.56-6.59,5.44-8.32,6.62-8.02,5.5-16.17,10.35-24.85,13.93-2.55,1.05-5.16,2-7.8,2.83-.53.17-1.07.33-1.6.49-1.6.46-3.22.88-4.88,1.26-3.29.75-6.67,1.31-10.16,1.65l13.98,20.07c4.42,8.01,2.97,7.49-3.98,12.49-7.14,5.16-15.32,9.58-23.8,12.96-1.7.68-3.4,1.32-5.11,1.9-3.43,1.2-6.87,2.2-10.3,3.02,7.2,19.2,6.01,39.82-.09,59.15v.02c-1.82-.17-3.68-.39-5.54-.68-5.58-.82-11.24-2.06-16.75-3.81-2.75-.87-5.46-1.86-8.1-2.97-18.49-7.82-33.61-21.81-34.98-43.77-.96.17-1.9.35-2.85.52-1.89.35-3.74.64-5.58.91-.94.13-1.87.25-2.78.36-1.84.24-3.66.41-5.49.53-5.22.35-10.47.25-16.03-.57,3.55,16.86-3.65,31.04-15.92,42.04-2.63,2.36-13.67,10.63-16.53,10.9-1.1.11-2.91-1.9-4.8-4.59-.31-.44-.61-.88-.93-1.35-.91-1.4-1.82-2.91-2.67-4.36-.42-.72-.82-1.43-1.2-2.11-1.12-2.01-1.98-3.71-2.34-4.54-3.27-7.36-5.72-15.46-5.16-23.59-7.03,1.84-13.86,5.13-21.23,5.32-1.01,9.25-1.86,29.66-8.41,36.25-.38.39-.8.79-1.24,1.18-1.34,1.2-2.93,2.47-4.67,3.74-3.22,2.33-6.98,4.7-10.71,6.78-.68.38-1.35.75-2.03,1.1-3.71,1.95-7.27,3.54-10.13,4.42-14.28,4.47-26.94,2.44-39.76-4.83l-14.22,23.4c16.25,8.92,18.68,29.22,15.76,46.1-.22,1.29-.47,2.58-.75,3.82h-.02c-.52.02-1.07.03-1.59.03-.61,0-1.24,0-1.89-.03-.83-.03-1.67-.06-2.52-.13-1.2-.09-2.41-.22-3.62-.38-.55-.06-1.09-.14-1.64-.24-1.09-.16-2.17-.36-3.24-.6-.3-.05-.6-.11-.9-.19-3.99-.9-7.88-2.17-11.37-3.81-3.88-1.82-6.42-4.69-10.3-6.06-1.98,8.59-7.12,17.27-12.82,23.89-1.73,2.01-5.52,3.54-4.91,5.71,9.47,6.07,18.31,14.77,24.64,24.08,3.76,5.54,5.16,5.58,1.05,9.58-.41.39-.87.83-1.37,1.31-.79.74-1.6,1.46-2.44,2.17-2.11,1.79-4.36,3.52-6.75,5.19-1.43.99-2.91,1.97-4.44,2.88-.5.31-1.02.61-1.54.91-1.02.61-2.06,1.19-3.13,1.75-14.61,7.74-31.97,11.72-46.69,6.59,4.83,14.34,4.7,30.29,1.64,44.98v.02c-.55.03-1.09.05-1.62.06-2.67.06-5.33-.05-7.96-.3-.82-.08-1.65-.17-2.47-.28-4.21-.55-8.38-1.49-12.44-2.72-1.04-.31-2.06-.63-3.08-.99-1.04-.35-2.08-.72-3.1-1.1-.75-.28-1.51-.58-2.25-.88l-13.84-7.83v.02c-1.64,21.04-16.86,36.34-33.31,47.68-.61.11-1.62-.58-2.88-1.79-.11-.09-.2-.19-.31-.31-2.83-2.86-6.75-8.23-9.95-13.35-.63-.99-1.21-1.97-1.76-2.91-.44-.75-.87-1.49-1.24-2.2-.09-.19-.19-.36-.28-.53-.19-.35-.36-.69-.53-1.02-.17-.33-.33-.65-.47-.96-.14-.31-.28-.61-.42-.91-.13-.28-.25-.57-.35-.83-.06-.13-.11-.27-.16-.39-.09-.25-.17-.49-.25-.72-.17-.57-.27-1.04-.28-1.4-8.59,4.77-17.06,10.88-27.41,10.63,7.94,7.69,17.13,14.97,21.99,25.07-.74,3.73-20.6,16.73-25.52,17.38ZM1283.1,519.45c0-3.7,2.66-10.21,5.52-14.99.19-.33.39-.65.6-.96.17-.28.35-.55.52-.8.2-.3.39-.57.58-.83.11-.14.22-.28.31-.42.19-.25.38-.49.57-.71.24-.28.47-.55.71-.79,6.9-7.06,20.35-9.97,30.7-8.95,1.34.13,2.63.33,3.84.6v13.7c0,4.34-2.2,9.96-5.28,14.78-.35.54-.69,1.05-1.07,1.57-.36.52-.74,1.02-1.12,1.51-.38.49-.77.96-1.16,1.4-.2.24-.41.46-.6.66-.2.24-.41.44-.61.64-1.21,1.23-2.45,2.28-3.7,3.05-.41.25-1.21.65-2.22,1.1-.44.19-.91.39-1.4.61-.33.14-.68.28-1.02.43-.35.14-.71.28-1.07.44-3.26,1.31-6.78,2.56-7.74,2.56h-16.36v-14.61ZM225.05,107.18c1.46-1.71,7.71-8.1,9.47-8.24.46-.05,1.18.41,2.04,1.18.28.25.58.53.88.83,3.63,3.68,8.96,11.29,9.89,13.18,1.73,3.51,2.86,7.19,3.32,10.91.22,1.75.28,3.51.19,5.28-.09,2.06-.42,4.12-.98,6.15-.41,1.53-.94,3.04-1.62,4.51-1.62,3.57-12.71,18.56-16.42,17.83-.77-.16-5.8-5.43-6.73-6.53-1.62-1.92-3.02-3.84-4.23-5.74-.6-.96-1.15-1.9-1.67-2.85-6.54-12.25-4.7-24.16,5.85-36.53ZM66.74,204.55c2.52-3.24,12.91-12.66,16.54-13.6,1.4-.36,1.51-.03,2.42.77.47.41,1.16,1.32,1.93,2.45.17.25.35.52.52.79.09.14.19.28.27.42.27.42.53.85.82,1.31.82,1.34,1.62,2.74,2.26,3.95.28.53.55,1.04.77,1.46.22.44.39.82.52,1.12,3.57,8.45,4.14,15.9,2.36,22.43-.2.79-.46,1.56-.72,2.31-.85,2.26-1.97,4.44-3.35,6.46-1.38,2.04-3.04,3.98-4.91,5.8-3.74,3.65-8.4,6.86-13.71,9.66h-.02c-1.78-1.92-3.41-3.98-4.86-6.15-.36-.53-.71-1.09-1.05-1.64-.68-1.1-1.32-2.23-1.89-3.38-.3-.58-.57-1.16-.83-1.75-.53-1.16-.99-2.34-1.4-3.55-3.27-9.53-2.69-19.88,4.32-28.86ZM-282.07,482.07c9.72-1.64,15.98.3,23.24,6.42,10.35,8.71,12.47,12.22-.3,19.19-18.23,9.94-31.71,1.95-42.01-13.87,4.48-4.36,12.9-10.69,19.06-11.73Z"/>
            </g>
            <path class="st13" d="M91.53,381.05c23.42-3.36,44.78-.93,53.44,23.88,1.13,3.24,4.95,20.4,3.66,22.13-.6.8-4.24,1.44-5.49,1.62-9.11,1.32-20.29.7-28.88-2.77-17.01-6.86-23.64-27.73-22.72-44.86Z"/>
            <path class="st13" d="M934.46,404.11c3.73,16.33,1.65,34.12-15.23,41.63-3.16,1.41-17.58,5.63-19.94,4.14-8.21-26.61,7.77-46.67,35.17-45.78Z"/>
            <path class="st13" d="M651.23,335.12c3.34-.48,10.75,9.81,12.45,12.89,5.96,10.78,6.27,19.64-.34,30.27-1.44,2.31-11.16,13.38-13.2,13.37-2.41,0-9.79-10.28-11.21-12.71-6.29-10.8-6.77-19.76-.22-30.6,1.78-2.94,9.37-12.78,12.52-13.23Z"/>
            <path class="st13" d="M483.32,363.25c-26.98-2.11-41.27-23.5-30.05-49.09,27.83,1.63,39.1,23.35,30.05,49.09Z"/>
            <path class="st13" d="M824.59,282.91c2.74-.72,10.39,9.14,11.94,11.68,6.73,11.06,7.15,21.28.19,32.38-1.71,2.73-10.31,12.79-13.15,12.51-2.64-.26-10.43-11.12-11.86-13.88-6.68-12.85-4.18-23.99,4.73-34.83.96-1.17,7.39-7.66,8.15-7.86Z"/>
            <path class="st13" d="M276.91,351.95c.64-.15,8.32,2,9.68,2.48,16.31,5.82,24.15,16.19,22.42,33.98-.19,1.94-2.28,11.79-3.39,12.53-3.4,2.27-15.71-3.52-19.21-5.64-11.85-7.19-14.63-16.28-13.59-29.82.18-2.33,1.82-13.02,4.1-13.54Z"/>
            <path class="st13" d="M960.85,380.24c3.53-.95,12.93,8.86,15.26,11.84,12.17,15.57,4.82,31.52-6.68,44.64-15.4-9.39-25.46-22.18-18.74-40.91,1.06-2.97,7.42-14.84,10.16-15.57Z"/>
            <path class="st13" d="M69.94,385.5c8.49,5.49,16.53,18.48,16.32,28.68-.24,11.4-10.22,22.53-19.1,28.54-6.04-5.06-11.65-12.7-13.97-20.31-4.96-16.29,5.57-26.9,16.75-36.91Z"/>
          </g>
          <path class="st2" d="M1075.21,472.57c1.5-12.08,10.59-19.17,21.92-21.43,1.89-.38,12.59-2.25,12.59.2v13.27c0,2.07-2.53,8.32-3.71,10.44-3.93,7.1-11.12,10.61-18.95,12.02-1.81.33-11.84,1.64-11.84-.34,0-4.34-.51-10.07,0-14.15Z"/>
          <path class="st2" d="M1186.68,586.25v15.48c0,4.85-5.8,13.07-9.79,15.87-4.57,3.2-17.94,7.1-23.24,5.84-1.42-.34-1.45-4.53-1.51-5.74-1.12-22.24,13.03-33.34,34.54-31.45Z"/>
          <path class="st2" d="M1276.68,679.34c11.33-1.93,23.1,3.99,29.36,13.38-8.86,11.18-20.38,19.5-35.05,13.11-3.27-1.42-13.94-8.35-13.43-11.91.68-4.71,14.33-13.77,19.12-14.59Z"/>
        </g>
        <g>
          <g>
            <path class="st0" d="M624.11,199.21c-42.54,0-77.15-34.61-77.15-77.15V2.14c0-29.02,23.61-52.63,52.63-52.63h82.96c10.01,0,19.11,4.65,24.98,12.76,5.87,8.11,7.43,18.21,4.3,27.72l-10.55,31.99v100.08c0,42.54-34.61,77.15-77.15,77.15Z"/>
            <path class="st12" d="M682.54-41.47c14.85,0,25.36,14.53,20.71,28.63l-11,33.36v101.53c0,37.63-30.5,68.13-68.13,68.13h0c-37.63,0-68.13-30.5-68.13-68.13V2.14c0-24.08,19.52-43.61,43.61-43.61h82.95M682.54-59.51h-82.95c-33.99,0-61.65,27.66-61.65,61.65v119.91c0,47.52,38.66,86.18,86.18,86.18s86.18-38.66,86.18-86.18V23.42l10.09-30.61c3.99-12.11,1.91-25.5-5.56-35.83-7.47-10.33-19.54-16.49-32.29-16.49h0Z"/>
          </g>
          <g>
            <path class="st0" d="M455.89,199.21c-42.54,0-77.15-34.61-77.15-77.15V21.97l-10.55-31.99c-3.13-9.5-1.57-19.61,4.3-27.72,5.86-8.11,14.97-12.76,24.98-12.76h82.96c29.02,0,52.63,23.61,52.63,52.63v119.91c0,42.54-34.61,77.15-77.15,77.15Z"/>
            <path class="st12" d="M480.42-41.47c24.08,0,43.61,19.52,43.61,43.61v119.91c0,37.63-30.5,68.13-68.13,68.13h0c-37.63,0-68.13-30.5-68.13-68.13V20.52l-11-33.36c-4.65-14.1,5.85-28.63,20.71-28.63h82.95M480.42-59.51h-82.95c-12.75,0-24.82,6.17-32.29,16.49-7.47,10.33-9.55,23.72-5.56,35.83l10.09,30.61v98.63c0,47.52,38.66,86.18,86.18,86.18s86.18-38.66,86.18-86.18V2.14c0-33.99-27.66-61.65-61.65-61.65h0Z"/>
          </g>
          <g class="st1">
            <path class="st12" d="M555.98,110.77V28.45h23.49c42.66,0,81.87,14.81,112.77,39.57v42.75c0,37.63-30.5,68.13-68.12,68.13h-.01c-37.62,0-68.12-30.5-68.12-68.13Z"/>
          </g>
          <g class="st1">
            <path class="st12" d="M397.46-41.46h43.19c-14.85,0-25.36,14.52-20.7,28.63l10.99,33.36v21.85c21.41-8.98,44.93-13.93,69.59-13.93h23.49v82.32c0,35.84-27.67,65.21-62.81,67.92-1.76.15-3.53.21-5.32.21-18.82,0-35.85-7.62-48.17-19.96-12.34-12.33-19.96-29.36-19.96-48.17V20.52l-10.99-33.36c-4.66-14.11,5.85-28.63,20.7-28.63Z"/>
          </g>
          <g>
            <g>
              <path class="st0" d="M759.9,454.69c-49.74,0-90.2-40.46-90.2-90.2s40.46-90.2,90.2-90.2,90.2,40.46,90.2,90.2-40.46,90.2-90.2,90.2Z"/>
              <path class="st12" d="M759.9,282.3c45.4,0,82.2,36.8,82.2,82.2s-36.8,82.2-82.2,82.2-82.2-36.8-82.2-82.2,36.8-82.2,82.2-82.2M759.9,266.3c-54.15,0-98.2,44.05-98.2,98.2s44.05,98.2,98.2,98.2,98.2-44.05,98.2-98.2-44.05-98.2-98.2-98.2h0Z"/>
            </g>
            <g>
              <path class="st12" d="M759.9,417.58c-29.27,0-53.09-23.81-53.09-53.09s23.81-53.09,53.09-53.09,53.09,23.81,53.09,53.09-23.81,53.09-53.09,53.09Z"/>
              <path class="st0" d="M759.9,318.18c25.58,0,46.32,20.74,46.32,46.32s-20.74,46.32-46.32,46.32-46.32-20.74-46.32-46.32,20.74-46.32,46.32-46.32M759.9,304.64c-33,0-59.85,26.85-59.85,59.85s26.85,59.85,59.85,59.85,59.85-26.85,59.85-59.85-26.85-59.85-59.85-59.85h0Z"/>
            </g>
          </g>
          <g class="st1">
            <path class="st12" d="M842.09,364.49c0,2.2-.09,4.38-.26,6.53-3.33-42.34-38.74-75.67-81.94-75.67s-78.61,33.32-81.94,75.67c-.17-2.15-.26-4.33-.26-6.53,0-45.39,36.8-82.2,82.2-82.2s82.2,36.81,82.2,82.2Z"/>
          </g>
          <g>
            <g>
              <path class="st0" d="M320.1,454.69c-49.73,0-90.2-40.46-90.2-90.2s40.46-90.2,90.2-90.2,90.2,40.46,90.2,90.2-40.46,90.2-90.2,90.2Z"/>
              <path class="st12" d="M320.1,282.3c45.4,0,82.2,36.8,82.2,82.2s-36.8,82.2-82.2,82.2-82.2-36.8-82.2-82.2,36.8-82.2,82.2-82.2M320.1,266.3c-54.15,0-98.2,44.05-98.2,98.2s44.05,98.2,98.2,98.2,98.2-44.05,98.2-98.2-44.05-98.2-98.2-98.2h0Z"/>
            </g>
            <g class="st1">
              <circle class="st12" cx="320.1" cy="364.5" r="82.2"/>
            </g>
            <circle class="st12" cx="320.1" cy="364.5" r="46.32"/>
          </g>
          <g>
            <path class="st0" d="M759.9,250.2c-26.43,0-48.25-19.18-49.66-43.66l-8.92-154.83c-.67-11.58,3.49-22.76,11.72-31.47,9.04-9.57,22.09-15.06,35.8-15.06h22.11c13.72,0,26.77,5.49,35.8,15.06,8.22,8.71,12.38,19.89,11.72,31.47l-8.92,154.83c-1.41,24.48-23.22,43.66-49.66,43.66Z"/>
            <path class="st12" d="M770.95,13.17c22.68,0,40.73,17.38,39.53,38.07l-8.92,154.83c-1.17,20.25-19.48,36.12-41.67,36.12h0c-22.19,0-40.5-15.87-41.67-36.12l-8.92-154.83c-1.19-20.7,16.85-38.07,39.53-38.07h22.11M770.95-2.83h-22.11c-15.91,0-31.08,6.4-41.62,17.57-9.75,10.33-14.68,23.62-13.89,37.42l8.92,154.83c1.65,28.71,26.97,51.2,57.64,51.2s55.99-22.49,57.64-51.2l8.92-154.83c.8-13.8-4.14-27.09-13.89-37.42-10.54-11.17-25.71-17.57-41.62-17.57h0Z"/>
          </g>
          <g class="st1">
            <path class="st12" d="M748.83,13.17h22.11c1.98,0,3.95.14,5.85.39-19.84,2.68-34.75,18.8-33.66,37.68l8.92,154.84c.58,10.13,5.45,19.15,12.95,25.65,3.44,2.98,7.42,5.42,11.81,7.19-5.18,2.11-10.9,3.27-16.92,3.27-11.1,0-21.22-3.97-28.72-10.46-7.5-6.51-12.37-15.53-12.95-25.65l-8.92-154.84c-1.2-20.69,16.85-38.07,39.53-38.07Z"/>
          </g>
          <g>
            <path class="st0" d="M320.1,250.2c-26.43,0-48.25-19.18-49.66-43.66l-8.92-154.83c-.67-11.58,3.49-22.76,11.72-31.47,9.04-9.57,22.09-15.06,35.8-15.06h22.11c13.72,0,26.77,5.49,35.8,15.06,8.22,8.71,12.38,19.89,11.72,31.47l-8.92,154.83c-1.41,24.48-23.22,43.66-49.66,43.66Z"/>
            <path class="st12" d="M331.16,13.17c22.68,0,40.73,17.38,39.53,38.07l-8.92,154.83c-1.17,20.25-19.48,36.12-41.67,36.12h0c-22.19,0-40.5-15.87-41.67-36.12l-8.92-154.83c-1.19-20.7,16.85-38.07,39.53-38.07h22.11M331.16-2.83h-22.11c-15.91,0-31.08,6.4-41.62,17.57-9.75,10.33-14.68,23.62-13.89,37.42l8.92,154.83c1.65,28.71,26.97,51.2,57.64,51.2s55.99-22.49,57.64-51.2l8.92-154.83c.8-13.8-4.14-27.09-13.89-37.42-10.54-11.17-25.71-17.57-41.62-17.57h0Z"/>
          </g>
          <g class="st1">
            <path class="st12" d="M331.17,13.17h-22.11c-1.98,0-3.95.14-5.85.39,19.84,2.68,34.75,18.8,33.66,37.68l-8.92,154.84c-.58,10.13-5.45,19.15-12.95,25.65-3.44,2.98-7.42,5.42-11.81,7.19,5.18,2.11,10.9,3.27,16.92,3.27,11.1,0,21.22-3.97,28.72-10.46,7.5-6.51,12.37-15.53,12.95-25.65l8.92-154.84c1.2-20.69-16.85-38.07-39.53-38.07Z"/>
          </g>
          <g>
            <path class="st0" d="M605.24,712.13c-16.73,0-32.47-6.52-44.3-18.35-11.83-11.83-18.35-27.57-18.35-44.3s6.52-32.47,18.35-44.3l5.66-5.66,88.6,88.6-5.66,5.66c-11.83,11.83-27.57,18.35-44.3,18.35Z"/>
            <path class="st12" d="M566.59,610.84l77.29,77.29c-10.67,10.67-24.66,16.01-38.64,16.01s-27.97-5.34-38.64-16.01c-21.34-21.34-21.34-55.94,0-77.29M566.59,588.21l-11.31,11.31c-27.55,27.55-27.55,72.37,0,99.91,13.34,13.34,31.09,20.69,49.96,20.69s36.61-7.35,49.96-20.69l11.31-11.31-11.31-11.31-77.29-77.29-11.31-11.31h0Z"/>
          </g>
          <g class="st1">
            <path class="st12" d="M564.55,612.97c.65-.73,1.33-1.44,2.03-2.14l9.54,9.54c-6.29,18.26-2.63,39.19,10.98,54.33.65.73,1.33,1.44,2.03,2.14,13.88,13.87,33.37,18.73,51.16,14.56-15.09,12.65-35.43,15.87-53.19,9.64-7.49-2.63-14.52-6.94-20.52-12.92-.7-.7-1.38-1.41-2.03-2.14-18.63-20.73-18.63-52.28,0-73.01Z"/>
          </g>
          <g>
            <path class="st0" d="M564.56,768c-50.36,0-91.33-40.97-91.33-91.33s40.97-91.33,91.33-91.33h8v182.66h-8Z"/>
            <path class="st12" d="M564.56,593.34v166.66c-46.02,0-83.33-37.31-83.33-83.33,0-46.02,37.31-83.33,83.33-83.33M580.56,577.34h-16c-54.77,0-99.33,44.56-99.33,99.33,0,54.77,44.56,99.33,99.33,99.33h16v-182.66s0-16,0-16h0Z"/>
          </g>
          <g class="st1">
            <path class="st12" d="M481.23,676.66c0-37.12,24.28-68.59,57.82-79.35-21.34,15.09-35.26,39.95-35.26,68.08,0,38.21,25.71,70.41,60.77,80.25v14.37c-46.02,0-83.32-37.31-83.32-83.34Z"/>
          </g>
          <g>
            <path class="st0" d="M421.59,658.93c-60.37,0-109.49-49.12-109.49-109.49V242.71c0-103.9,84.53-188.43,188.43-188.43h78.94c103.9,0,188.43,84.53,188.43,188.43v306.73c0,60.37-49.12,109.49-109.49,109.49h-236.81Z"/>
            <path class="st12" d="M579.47,62.28c99.65,0,180.43,80.78,180.43,180.43v306.73c0,56.05-45.44,101.49-101.49,101.49h-236.81c-56.05,0-101.49-45.44-101.49-101.49V242.71c0-99.65,80.78-180.43,180.43-180.43h78.94M579.47,46.28h-78.94c-26.51,0-52.24,5.2-76.46,15.44-23.39,9.89-44.4,24.06-62.43,42.09-18.03,18.03-32.2,39.04-42.09,62.43-10.25,24.23-15.44,49.95-15.44,76.46v306.73c0,31.38,12.22,60.89,34.41,83.08,22.19,22.19,51.7,34.41,83.08,34.41h236.81c31.38,0,60.89-12.22,83.08-34.41,22.19-22.19,34.41-51.7,34.41-83.08V242.71c0-26.51-5.2-52.24-15.44-76.46-9.89-23.39-24.06-44.4-42.09-62.43-18.03-18.03-39.04-32.2-62.43-42.09-24.23-10.25-49.95-15.44-76.46-15.44h0Z"/>
          </g>
          <g class="st3">
            <line class="st8" x1="730.53" y1="478.18" x2="730.53" y2="496.69"/>
            <path class="st8" d="M730.53,530.91c0,52.25-38.53,93.46-97.12,88.97"/>
          </g>
          <path class="st10" d="M355.29,379.16c0-29.27,11.86-55.77,31.04-74.96,19.18-19.18,45.68-31.04,74.96-31.04h7.48c-2.07-6.59-3.19-13.59-3.19-20.86v-10.15c0-38.31,31.04-69.35,69.35-69.35h10.15c38.31,0,69.35,31.04,69.35,69.35v10.15c0,7.27-1.12,14.28-3.19,20.86h7.48c58.54,0,106,47.45,106,106,0,29.27-11.86,55.77-31.04,74.96-19.18,19.18-45.68,31.04-74.96,31.04h-157.42c-58.54,0-106-47.46-106-106Z"/>
          <path class="st12" d="M585.11,379.16c0-23.67,19.18-42.85,42.85-42.85s42.85,19.18,42.85,42.85h-85.7Z"/>
          <path class="st12" d="M406.89,379.16c0-23.67,19.18-42.85,42.85-42.85s42.85,19.18,42.85,42.85h-85.7Z"/>
          <rect class="st12" x="553.53" y="265.5" width="20.15" height="38.01" rx="10.08" ry="10.08" transform="translate(1163.31 87.14) rotate(135)"/>
          <rect class="st12" x="506.31" y="265.5" width="20.15" height="38.01" rx="10.08" ry="10.08" transform="translate(680.36 850.82) rotate(-135)"/>
          <rect class="st11" x="434.07" y="439.78" width="31.42" height="90.76" rx="15.71" ry="15.71" transform="translate(-35.37 934.95) rotate(-90)"/>
          <rect class="st11" x="612.25" y="439.78" width="31.42" height="90.76" rx="15.71" ry="15.71" transform="translate(142.8 1113.12) rotate(-90)"/>
          <path class="st7" d="M444.77,241.54s42.69-20,95.23-20,95.23,20,95.23,20"/>
          <g class="st1">
            <path class="st12" d="M320.1,549.44V242.71c0-99.65,80.79-180.43,180.43-180.43h78.94c.89,0,1.79.01,2.68.02-98.4,1.43-177.74,81.64-177.74,180.41v306.73c0,56.05,45.45,101.49,101.49,101.49h-84.31c-56.05,0-101.49-45.45-101.49-101.49Z"/>
          </g>
        </g>
        <g>
          <path class="st4" d="M1389.26,0v541.12c-.19.11-.42.27-.68.47-.25.19-.52.41-.82.69-.74.66-1.62,1.54-2.6,2.53-1.73,1.76-3.71,3.9-5.58,5.83-.42.42-.83.85-1.23,1.26-2.42,2.42-4.51,4.29-5.47,4.29-23.83-18.75-41.93-49.49-26.09-79.64-10.54-2.19-20.29-8.41-27.87-15.92-6.65,15.95-18.83,23.68-35.62,26.28-6.92,1.07-16.21,2.09-22.32-1.09v-14.15c0-2.94,2.31-12,3.3-15.27,1.42-4.7,3.35-6.94,5.11-10.84.57-1.23.68-1.32-.47-2.19-1.56-1.16-12-3.6-15.33-5.02-7.23-3.04-13.37-7.58-19.58-12.25-5.03,8.59-11.21,17.9-18.29,25.62-.61.64-1.2,1.27-1.81,1.89-.6.61-1.21,1.23-1.82,1.82-1.24,1.18-2.5,2.31-3.77,3.38-1.51,1.26-5.32,4.75-6.86,4.34-1.32-.36-3.57-2.2-6.17-4.78-.3-.28-.58-.58-.88-.88-.6-.61-1.21-1.26-1.82-1.92-.61-.66-1.24-1.35-1.87-2.06-5.68-6.32-11.62-13.9-13.45-16.69-.63-.96-1.38-2.19-2.19-3.57-.8-1.4-1.67-2.96-2.56-4.64v-.02c-1.76-3.33-3.55-7.09-5.02-10.65-.28-.71-.55-1.42-.82-2.12-.5-1.37-.96-2.71-1.31-3.93-.52-1.86-.82-3.51-.82-4.81v-19.91h-.02c-1.18.5-2.38.99-3.57,1.45-5.38,2.09-10.93,3.85-16.61,5.03-3.16.64-6.35,1.12-9.56,1.37-.19.02-.42.03-.69.05-.25.02-.55.03-.88.05s-.68.03-1.05.05h-.02c-.36.02-.77.03-1.18.05-6.04.19-16.15.2-17.54-1.16-2.37-2.39-.63-19.77-.09-24.02,1.82-14.19,6.68-27.55,16.04-37.23.85-.88,1.73-1.73,2.66-2.55,1.38-1.23,2.86-2.37,4.44-3.44,1.56-1.07,3.21-2.06,4.97-2.97,1.16-.6,2.36-1.16,3.62-1.68l-15.4-27.93v-.02c-3.57-.71-7.11-1.46-10.6-2.34-.87-.22-1.73-.44-2.59-.69-1.73-.47-3.43-.99-5.11-1.57-7.56-2.56-14.64-6.23-20.68-12.09-2.75,2.91-16.92,19.34-19.44,19.42-4.37.11-19.64-19.23-22.43-23.61-2.91-4.58-9.89-18.79-9.89-23.72v-14.59c-11.18,3.24-22.79,4.12-34.41,3.44-1.48-9.92-1.65-19.8-.47-29.55.17-1.43.38-2.86.61-4.28.24-1.42.49-2.83.79-4.25.87-4.25,2.01-8.46,3.43-12.64-4.55-5.82-9.36-11.73-15.05-16.42,1.23,7.82,1.95,15.77,1.59,23.65-.09,2.06-.27,4.1-.52,6.13-.08.68-.17,1.37-.28,2.04-.2,1.35-.46,2.71-.74,4.06-13.6,1.15-27.59-1.01-40.32-5.77-5.3,3.21-10.08,7.3-15.24,10.76-1.02.69-2.08,1.35-3.15,1.98-2.14,1.26-4.37,2.36-6.75,3.22.24,1.07.5,2.14.79,3.19.69,2.64,1.51,5.25,2.31,7.86,1.45,4.7,2.88,9.42,3.65,14.34.38,2.41,1.64,9.44,1.12,12.44-.06.33-.14.61-.24.83-.05.08-.08.16-.13.22-2.14,3.05-34.55,5.55-39.85,5.25-3.66-.2-15.29-3.1-17.5-2.52-.3.08-.61.25-.93.47-.2.16-.42.35-.61.57-2.91,2.93-6.07,10.77-9.17,10.33-3.3-.47-16.94-10.93-20.02-13.7-4.84-4.37-8.76-9.51-12.94-14.47-15.59-.52-31.11-2.42-44.1-11.62-3.32,9-5.36,16.01-12.82,22.55-3.19,2.8-10.22,6.67-17.58,9.64-.72.3-1.46.58-2.19.85-1.29.49-2.56.94-3.84,1.34-5.98,1.92-11.53,2.86-14.77,1.75-.06-.03-.14-.06-.2-.11-.06-.06-.14-.13-.2-.2-1.13-1.37-2.15-6.53-2.83-11.24-.11-.83-.22-1.65-.33-2.44-.03-.27-.06-.52-.09-.77-.06-.5-.11-.99-.17-1.45-.17-1.6-.28-2.88-.3-3.52-.2-6.26.74-11.65,1.97-17.25.2-.93.41-1.86.63-2.8.33-1.4.66-2.83.99-4.31h-.02c-13.49.22-27.1-3.38-38.47-10.63-2.41,8.26-5.8,16.1-10.03,23.61-2.56,4.56-9,15.13-12.53,18.45-.66.61-.87,1.27-2.04,1.16-2.12-.2-10.43-6.01-12.74-7.63-8.3-5.77-16.51-13.04-23.12-21.44-1.42-1.79-2.75-3.65-4.01-5.55-6.59-9.97-10.73-21.28-10.29-33.36-.49-.57-10.93,6.61-12.49,7.41-6.97,3.54-15.15,6.29-23.34,7.85-1.64.31-3.27.58-4.89.79h-.02c-3.26.42-6.48.66-9.59.66-.11-.42-.22-.87-.33-1.29-.05-.27-.13-.55-.19-.82-.24-1.04-.47-2.08-.69-3.15-.63-3-1.18-6.12-1.62-9.31-.17-1.26-.33-2.55-.47-3.84-1.46-13.67-.71-28.15,4.81-39.6,1.7-3.52,9.2-11.69,9.7-13.31,1.26-4.01.8-10.9,1.95-15.29-5.91,3.52-12.39,7.63-18.97,9.77-1.7.55-8.65,2.61-9.77,2.61h-12.83c3.02,12.8,3.26,25.87,1.78,38.92-.97.03-1.97.06-2.96.09-5.72.13-11.8-.08-17.87-.77-.57-.06-1.12-.13-1.68-.2-2.22-.28-4.45-.63-6.65-1.07-.35-.06-.69-.13-1.04-.2-3.1-.64-6.13-1.43-9.09-2.42-.82-.25-1.62-.53-2.42-.83-1.34-.5-2.64-1.04-3.92-1.62-.65-.27-1.27-.57-1.89-.88-3.08-1.51-5.99-3.29-8.67-5.35-1.82-1.42-8.19-9.66-10.18-7.97-1.12,4.58-2.82,8.93-4.95,13.08-.8,1.56-1.67,3.08-2.59,4.58-3.4,5.46-7.55,10.51-12.14,15.1-1.67,1.67-3.38,3.27-5.16,4.83-1.76,1.54-3.57,3.02-5.39,4.45-.93.71-1.84,1.4-2.77,2.08-2.48-2.01-4.89-4.2-7.2-6.54-10.03-10.16-18.12-23.15-21.72-36.68-19.22,24-53.35,28.69-82.17,23.78-.38-7.99-.25-16.04.66-23.98.52-4.36,1.26-8.67,2.3-12.91,1.04-4.26,2.36-8.45,4.03-12.53-13.82-.13-26.33-6.76-37.6-14.14-.71,1.87-1.48,3.76-2.33,5.65-1.98,4.37-4.32,8.71-7.05,12.74-2.33,3.44-4.94,6.67-7.83,9.5-1.65,1.62-3.95,3.98-6.35,5.28-.44.24-.86.44-1.31.6-1.24.46-2.48.53-3.65.03-.36-.16-.88-.57-1.51-1.13-1.48-1.38-3.54-3.76-5.49-6.2-.33-.39-.66-.8-.97-1.21-.31-.39-.63-.8-.94-1.2-.3-.39-.6-.77-.88-1.15-.28-.36-.55-.72-.82-1.07-.25-.35-.49-.68-.72-.97-.22-.31-.42-.6-.61-.87-.28-.39-.5-.72-.68-.99-1.04-1.57-1.98-3.15-2.85-4.73-2-3.7-3.52-7.44-4.5-11.24-.28-1.09-.52-2.19-.71-3.27-.19-1.1-.33-2.19-.42-3.29-.25-2.93-.17-5.87.25-8.85.11-.74.24-1.48.39-2.22.24-1.12.5-2.23.83-3.37s.71-2.26,1.13-3.4c.44-1.13.93-2.28,1.46-3.43,0,0,0-.02-.02,0-.25-.27-2.71-.68-5.55-1.04-.19-.03-.39-.06-.58-.08-.24-.03-.47-.06-.71-.09-.49-.05-.98-.11-1.45-.16-1.01-.11-1.98-.2-2.88-.28-.2-.02-.41-.03-.6-.05-.13-.02-.25-.02-.36-.03-.19-.02-.38-.03-.55-.03-.83-.05-1.46-.08-1.78-.03-.03-.02-.06,0-.09,0-.28.05-.72.3-1.26.66-2.34,1.56-6.59,5.44-8.32,6.62-8.02,5.5-16.17,10.35-24.85,13.93-2.55,1.05-5.16,2-7.8,2.83-.53.17-1.07.33-1.6.49-1.6.46-3.22.88-4.88,1.26-3.29.75-6.67,1.31-10.16,1.65l13.98,20.07c4.42,8.01,2.97,7.49-3.98,12.49-7.14,5.16-15.32,9.58-23.8,12.96-1.7.68-3.4,1.31-5.11,1.9-3.43,1.18-6.87,2.19-10.3,3v.02c7.2,19.2,6.01,39.82-.09,59.15-1.82-.17-3.68-.39-5.54-.66-5.58-.82-11.24-2.06-16.75-3.81-2.75-.87-5.46-1.86-8.1-2.97-18.49-7.82-33.61-21.81-34.98-43.77-.96.17-1.9.35-2.85.52-1.89.33-3.74.64-5.58.91-.94.13-1.87.25-2.78.36-1.84.22-3.66.41-5.49.53-5.22.35-10.47.25-16.03-.57,3.55,16.86-3.65,31.04-15.92,42.04-2.63,2.36-13.67,10.63-16.53,10.9-1.1.11-2.91-1.9-4.8-4.59-.3-.44-.61-.88-.93-1.35-.91-1.4-1.82-2.91-2.67-4.36-.42-.72-.82-1.43-1.2-2.11-1.12-2.01-1.98-3.71-2.34-4.54-3.27-7.36-5.72-15.46-5.16-23.59-7.03,1.84-13.86,5.13-21.23,5.32-1.01,9.25-1.86,29.66-8.41,36.25-.38.39-.8.79-1.24,1.18-1.34,1.2-2.93,2.47-4.67,3.74-3.22,2.33-6.98,4.7-10.71,6.78-.68.38-1.35.74-2.03,1.1-3.71,1.95-7.27,3.54-10.13,4.42-14.28,4.47-26.94,2.44-39.76-4.83l-14.22,23.4c16.25,8.92,18.68,29.22,15.76,46.1-.22,1.29-.49,2.58-.77,3.82-.52.02-1.07.03-1.59.03-.61,0-1.24,0-1.89-.03-.83-.03-1.67-.06-2.52-.13-1.2-.09-2.41-.22-3.62-.38-.55-.06-1.09-.14-1.64-.24-1.09-.16-2.17-.36-3.24-.6-.3-.05-.6-.13-.9-.19-3.99-.9-7.88-2.17-11.37-3.81-3.88-1.82-6.42-4.69-10.3-6.06-1.98,8.59-7.12,17.27-12.82,23.89-1.73,2.01-5.52,3.54-4.91,5.71,9.47,6.07,18.31,14.77,24.64,24.08,3.76,5.54,5.16,5.58,1.05,9.58-.41.39-.87.82-1.37,1.29-.79.74-1.6,1.46-2.44,2.19-2.11,1.79-4.36,3.52-6.75,5.19-1.43.99-2.91,1.95-4.44,2.88-.5.31-1.02.61-1.54.91-1.02.6-2.08,1.18-3.13,1.75-14.61,7.74-31.97,11.72-46.69,6.59,4.83,14.34,4.7,30.29,1.64,44.98-.53.03-1.09.05-1.62.08-2.67.06-5.33-.05-7.96-.3-.82-.08-1.65-.17-2.47-.28-4.21-.55-8.38-1.49-12.44-2.72-1.04-.31-2.06-.64-3.08-.99-1.04-.35-2.08-.72-3.1-1.1-.75-.28-1.51-.58-2.25-.88l-13.84-7.83v.02c-1.64,21.04-16.86,36.34-33.31,47.68-.61.11-1.62-.58-2.88-1.79l-.31-.31c-2.83-2.88-6.75-8.24-9.95-13.35-.61-.99-1.2-1.97-1.76-2.91-.44-.75-.85-1.49-1.24-2.2-.09-.19-.19-.36-.28-.53-.19-.35-.36-.69-.53-1.02-.16-.33-.31-.65-.47-.96-.14-.31-.28-.61-.42-.91-.13-.28-.24-.57-.35-.83-.06-.13-.11-.27-.16-.39-.09-.25-.17-.49-.25-.72-.17-.57-.27-1.04-.28-1.4-8.59,4.77-17.06,10.88-27.41,10.63,7.94,7.69,17.13,14.97,21.99,25.07-.74,3.73-20.6,16.73-25.52,17.38V0"/>
          <path class="st4" d="M1160.98,388.65c-5.38,2.11-10.95,3.85-16.61,5.03,5.68-1.18,11.23-2.94,16.61-5.03Z"/>
          <path class="st4" d="M1129.68,294.25c-3.57-.72-7.11-1.46-10.6-2.36,3.49.88,7.03,1.64,10.6,2.34v.02Z"/>
          <path class="st4" d="M1004.53,238.49c-1.48-9.92-1.67-19.8-.47-29.55-1.18,9.75-1.01,19.63.47,29.55Z"/>
          <path class="st4" d="M995.42,195c-.09,2.06-.25,4.1-.52,6.13.25-2.03.42-4.07.52-6.13Z"/>
          <path class="st4" d="M739.61,266.78c-.06-.02-.14-.06-.2-.13.06.05.14.08.2.11,3.24,1.12,8.79.17,14.77-1.75-5.96,1.92-11.53,2.86-14.77,1.76Z"/>
          <path class="st4" d="M739.06,222.66c-.33,1.48-.66,2.91-.99,4.31.31-1.4.65-2.83.98-4.31h.02Z"/>
          <path class="st4" d="M585.07,203.32c-3.26.44-6.48.68-9.59.68v-.02c3.11,0,6.34-.24,9.59-.66Z"/>
          <path class="st4" d="M548.85,168.71c-.97.05-1.97.06-2.96.08.99-.03,1.98-.06,2.96-.09v.02Z"/>
          <path class="st4" d="M284.22,141.73c-.44.25-.86.44-1.31.6.44-.16.87-.36,1.31-.6Z"/>
          <path class="st4" d="M279.26,142.38c-.36-.16-.88-.57-1.51-1.15.63.57,1.15.97,1.51,1.13,1.16.5,2.41.42,3.65-.03-1.24.46-2.48.55-3.65.05Z"/>
          <path class="st4" d="M266.62,127.58c-1.04-1.57-1.98-3.15-2.83-4.73.86,1.59,1.81,3.16,2.85,4.73.17.27.39.6.68.99-.28-.39-.52-.72-.69-.99Z"/>
          <path class="st4" d="M263.79,122.85c-2.01-3.7-3.52-7.44-4.5-11.24.97,3.81,2.5,7.55,4.5,11.24Z"/>
          <path class="st4" d="M247.76,81.99c.31-.05.94-.02,1.78.03-.82-.05-1.45-.06-1.78-.03Z"/>
          <path class="st4" d="M247.67,82c-.28.05-.72.28-1.26.65.53-.36.97-.61,1.26-.66.03,0,.06-.02.09,0-.03.02-.06.02-.09.02Z"/>
          <path class="st4" d="M213.24,103.2c-2.55,1.05-5.16,2.01-7.8,2.83,2.64-.83,5.25-1.78,7.8-2.83Z"/>
          <path class="st4" d="M203.83,106.52c-1.6.47-3.22.9-4.88,1.26,1.65-.38,3.27-.8,4.88-1.26Z"/>
          <path class="st4" d="M-19.02,224.71c-1.34,1.21-2.93,2.47-4.67,3.74,1.75-1.27,3.33-2.55,4.67-3.74Z"/>
          <path class="st4" d="M-23.69,228.45c-3.22,2.34-6.98,4.72-10.71,6.78,3.73-2.08,7.49-4.45,10.71-6.78Z"/>
          <path class="st4" d="M-85.54,309.26c-.52.02-1.05.02-1.59.02.52,0,1.07-.02,1.59-.03v.02Z"/>
          <polygon class="st4" points="-226.1 412.87 -226.1 412.85 -212.26 420.68 -226.1 412.87"/>
          <path class="st4" d="M1112.37,437.63c.74-11.4,5.5-23.96,16.02-29.54,2.11-1.12,9.89-4.08,11.84-4.08h16.37v14.6c0,4.74-5.73,16.42-9.3,19.9-3.79,3.7-14.76,8.16-19.9,8.86-2.03.27-12.04.3-13.28-.43-2.15-1.27-1.91-6.96-1.76-9.3Z"/>
          <path class="st4" d="M999.04,257.26c-1.77,22.33-11.51,44.83-36.58,46.82-3.92.31-24.73-.02-26.65-2.63.7-17.43,8.31-38.59,26.21-44.69,11.37-3.88,25.59-2.72,37.02.5Z"/>
          <path class="st4" d="M234.51,98.93c2.38-.21,11.57,12.66,12.83,15.2,4.22,8.53,4.86,18.12.9,26.86-1.62,3.57-12.7,18.55-16.41,17.83-.78-.15-5.81-5.42-6.74-6.52-12.81-15.33-13.05-29.87-.05-45.11,1.47-1.72,7.71-8.1,9.47-8.25Z"/>
          <path class="st4" d="M110.95,218.23c13.12,1.57,29.17,6.54,34.3,20.11,3.41,9.03,2.72,21.85-.65,30.85-14.71-1.31-30.97-7.95-35.01-23.5-2.53-9.74-.35-17.88,1.36-27.46Z"/>
          <path class="st4" d="M412.39,167.05c2.94-.72,10.6,9.54,12.2,12.23,6.66,11.19,7.05,22.48-.11,33.57-1.82,2.82-11.17,13.68-14.03,13.39-2.71-.27-10.65-11.69-12.14-14.49-5.86-11.02-5.62-19.84.66-30.6,1.98-3.4,9.8-13.21,13.42-14.1Z"/>
          <path class="st4" d="M1020.07,263.5c4.53-.37,14.85,16.28,16.27,20.59,4.11,12.49-.93,23.88-9.32,33.23-6.71,7.47-7.13,7.8-13.7.41-8.48-9.55-13.71-21.17-9.3-34.02,1.47-4.29,11.68-19.85,16.05-20.21Z"/>
          <path class="st4" d="M83.29,190.94c1.4-.37,1.51-.03,2.43.77,1.69,1.48,6.09,9.14,7.09,11.49,9.14,21.64-1.43,36.68-20.34,46.66-11.51-12.47-17.14-30.69-5.72-45.33,2.53-3.24,12.92-12.65,16.55-13.6Z"/>
          <path class="st4" d="M285.23,201.43c-8.87-23.43-5.11-44.14,20.75-52.23,8.27-2.59,8.4-2.4,10.65,6.22,7.03,26.85-6.27,40.16-31.4,46.01Z"/>
          <path class="st4" d="M620.39,205.96c2,1.3,2.24,20.11,1.89,23.33-1.85,16.99-21.74,26.3-37.12,26.04-8-28,5.92-48.78,35.23-49.38Z"/>
          <path class="st4" d="M1326.45,491.59v13.71c0,7.7-6.93,19.48-13.54,23.61-1.9,1.19-11.76,5.14-13.44,5.14h-16.37v-14.6c0-5.13,5.13-15.74,8.81-19.5,7.8-7.98,23.94-10.67,34.54-8.37Z"/>
          <path class="st4" d="M-166.28,390.8c.41-.12,7.35.83,8.51,1.05,20.59,3.84,28.26,20.52,22.85,40.08-17.55.89-32.42-7.85-33.66-26.61-.16-2.37.29-13.95,2.3-14.52Z"/>
          <path class="st4" d="M-303.4,538.54c.45-.13,7.99.96,9.23,1.22,20.65,4.19,26.94,20.57,22.13,39.91-12.46.94-28.52-5.19-32.19-18.35-1.01-3.62-2.8-21.73.83-22.78Z"/>
          <path class="st4" d="M-282.06,482.07c9.71-1.64,15.97.29,23.24,6.41,10.35,8.71,12.48,12.22-.3,19.18-18.23,9.94-31.71,1.96-42.01-13.87,4.48-4.34,12.9-10.68,19.07-11.72Z"/>
          <path class="st4" d="M-75.58,254.63c21.19-.62,35.74,11.66,33.37,33.82-.78,7.31-1.63,7.51-9.08,6.65-21.61-2.49-29.9-20.79-24.29-40.47Z"/>
        </g>
        <path class="st4" d="M153.01,605.05c6.58,22.73,7.13,44.21-16.23,56.23-3.05,1.57-19.52,7.73-21.4,6.69-.87-.48-2.02-4-2.37-5.21-2.57-8.84-3.51-20-1.27-28.99,4.43-17.8,24.18-27.26,41.28-28.73Z"/>
        <path class="st4" d="M919.25,823.72c-23.39-3.54-43.14-12.02-44.28-38.27-.15-3.43,1.15-20.96,2.88-22.24.8-.59,4.48-.16,5.73.03,9.1,1.37,19.63,5.18,26.86,10.98,14.31,11.47,14.64,33.37,8.82,49.51Z"/>
        <path class="st4" d="M1042.16,555.58c-1.78,23.59-8.76,43.92-34.85,47.02-3.41.41-20.99.42-22.39-1.2-.65-.76-.49-4.45-.4-5.71.68-9.18,3.7-19.96,8.94-27.6,10.37-15.13,32.18-17.1,48.71-12.5Z"/>
      </g>
    </g>
  </g>
</svg>