<?xml version="1.0" encoding="UTF-8"?>
<svg xmlns="http://www.w3.org/2000/svg" version="1.1" xmlns:xlink="http://www.w3.org/1999/xlink" viewBox="0 0 1080 760">
  <!-- Generator: Adobe Illustrator 29.0.1, SVG Export Plug-In . SVG Version: 2.1.0 Build 192)  -->
  <defs>
    <style>
      .st0 {
        fill: #ff4e50;
      }

      .st1 {
        opacity: .3;
      }

      .st2 {
        mix-blend-mode: soft-light;
      }

      .st3, .st4, .st5 {
        fill: none;
      }

      .st6 {
        isolation: isolate;
      }

      .st7 {
        fill: #ffc9b1;
      }

      .st7, .st8, .st4 {
        stroke: #3e4654;
      }

      .st7, .st8, .st4, .st5 {
        stroke-miterlimit: 10;
      }

      .st7, .st4, .st5 {
        stroke-linecap: round;
        stroke-width: 16px;
      }

      .st8 {
        stroke-width: 10px;
      }

      .st8, .st9 {
        fill: #3e4654;
      }

      .st5 {
        stroke: #fff;
      }

      .st10 {
        clip-path: url(#clippath);
      }
    </style>
    <clipPath id="clippath">
      <rect class="st3" y="0" width="1080" height="760"/>
    </clipPath>
  </defs>
  <g class="st6">
    <g id="Capa_1">
      <g class="st10">
        <g>
          <g>
            <g>
              <path class="st0" d="M-157.64,291.61c-12.69,0-25.32-5.35-34.65-14.68l-15.64-15.64c-9.7-9.7-15.04-22.81-14.67-35.97.34-11.97,5.31-22.82,13.97-30.54l115.79-103.18c8.04-7.17,18.61-11.11,29.76-11.11,13.27,0,26.47,5.6,36.23,15.35,18.69,18.69,20.55,47.68,4.24,65.99l-103.18,115.79c-8.04,9.02-19.35,13.99-31.85,13.99Z"/>
              <path class="st9" d="M-63.08,88.5c10.82,0,21.97,4.4,30.57,13.01h0c15.69,15.69,17.42,39.86,3.92,55.01l-103.18,115.79c-6.73,7.55-16.14,11.31-25.88,11.31-10.21,0-20.78-4.13-28.99-12.34l-15.64-15.64c-16.04-16.04-16.51-41.09-1.03-54.88l115.79-103.18c6.84-6.1,15.52-9.09,24.44-9.09M-63.08,72.5h0c-13.11,0-25.57,4.67-35.08,13.14l-115.79,103.18c-10.32,9.2-16.23,22.08-16.64,36.28-.44,15.35,5.76,30.61,17,41.85l15.64,15.64c10.82,10.82,25.51,17.03,40.31,17.03s28.25-5.92,37.83-16.67L-16.64,167.16C2.49,145.68.49,111.88-21.19,90.19c-11.25-11.25-26.51-17.69-41.88-17.69h0Z"/>
            </g>
            <g class="st1">
              <path class="st9" d="M-186.63,271.28l-15.64-15.64c-1.4-1.4-2.7-2.89-3.86-4.42,15.92,12.13,37.87,11.28,50.44-2.84l103.18-115.8c6.75-7.57,9.69-17.39,8.99-27.29-.33-4.54-1.41-9.08-3.26-13.44,5.15,2.17,10.02,5.4,14.27,9.65,7.85,7.85,12.2,17.81,12.91,27.71.7,9.9-2.23,19.73-8.99,27.29l-103.18,115.8c-13.79,15.48-38.83,15.01-54.87-1.03Z"/>
            </g>
          </g>
          <g>
            <g>
              <path class="st0" d="M338.26,618.45c-12.5,0-23.82-4.97-31.85-13.99l-103.18-115.79c-16.31-18.31-14.45-47.29,4.24-65.99,9.76-9.76,22.96-15.35,36.23-15.35,11.15,0,21.72,3.95,29.76,11.11l115.79,103.18c8.66,7.72,13.62,18.56,13.97,30.54.38,13.16-4.97,26.27-14.67,35.97l-15.64,15.64c-9.33,9.33-21.96,14.68-34.65,14.68Z"/>
              <path class="st9" d="M243.7,415.33c8.91,0,17.59,2.99,24.44,9.09l115.79,103.18c15.48,13.79,15.01,38.84-1.03,54.88l-15.64,15.64c-8.21,8.21-18.78,12.34-28.99,12.34s-19.15-3.75-25.88-11.31l-103.18-115.79c-13.49-15.14-11.77-39.31,3.92-55.01h0c8.6-8.6,19.76-13.01,30.57-13.01M243.7,399.33v16-16h0c-15.37,0-30.64,6.45-41.88,17.69-21.69,21.69-23.69,55.49-4.55,76.96l103.18,115.79c9.58,10.75,23.01,16.66,37.83,16.66s29.49-6.21,40.31-17.03l15.64-15.64c11.25-11.25,17.45-26.5,17.01-41.85-.41-14.2-6.32-27.08-16.64-36.28l-115.79-103.18c-9.51-8.47-21.97-13.14-35.08-13.14h0Z"/>
            </g>
            <g class="st1">
              <path class="st9" d="M367.25,598.11l15.64-15.64c1.4-1.4,2.7-2.89,3.86-4.42-15.92,12.13-37.87,11.28-50.44-2.84l-103.18-115.8c-6.75-7.57-9.69-17.39-8.99-27.29.33-4.54,1.41-9.08,3.26-13.44-5.15,2.17-10.02,5.4-14.27,9.65-7.85,7.85-12.2,17.81-12.91,27.71-.7,9.9,2.23,19.73,8.99,27.29l103.18,115.8c13.79,15.48,38.83,15.01,54.87-1.03Z"/>
            </g>
          </g>
          <g>
            <g>
              <path class="st0" d="M-88.9,437.24c-14.06,0-27.27-5.47-37.21-15.41l-58.66-58.66c-7.08-7.08-10.23-16.8-8.64-26.68s7.62-18.13,16.56-22.64l30.07-15.16,70.77-70.77c14.57-14.57,33.95-22.6,54.56-22.6s39.98,8.03,54.56,22.6c14.57,14.57,22.6,33.95,22.6,54.56s-8.03,39.98-22.6,54.56l-84.79,84.79c-9.94,9.94-23.16,15.41-37.21,15.41Z"/>
              <path class="st9" d="M-21.45,214.34c17.44,0,34.87,6.65,48.18,19.96h0c26.61,26.61,26.61,69.75,0,96.35l-84.79,84.79c-8.51,8.51-19.67,12.77-30.83,12.77s-22.32-4.26-30.83-12.77l-58.66-58.66c-10.5-10.5-7.66-28.2,5.6-34.89l31.37-15.81,71.79-71.79c13.3-13.3,30.74-19.96,48.18-19.96M-21.45,196.3c-23.02,0-44.66,8.96-60.94,25.24l-69.74,69.74-28.78,14.51c-11.38,5.74-19.38,16.68-21.41,29.26-2.02,12.59,2.15,25.48,11.17,34.49l58.66,58.66c11.64,11.64,27.13,18.06,43.59,18.06s31.95-6.41,43.59-18.06l84.79-84.79c33.6-33.6,33.6-88.27,0-121.87-16.28-16.28-37.92-25.24-60.94-25.24h0Z"/>
            </g>
            <g class="st1">
              <path class="st9" d="M18.75,338.63l-58.21,58.21-16.61-16.61c-30.17-30.17-47.42-68.36-51.76-107.72l30.23-30.23c26.61-26.61,69.75-26.61,96.35,0h0c26.6,26.61,26.6,69.75,0,96.36Z"/>
            </g>
          </g>
          <g>
            <g>
              <path class="st0" d="M18.56,593.78c-8.2,0-15.93-3.21-21.75-9.03l-58.66-58.66c-20.52-20.52-20.52-53.91,0-74.42l84.79-84.79c14.57-14.57,33.95-22.6,54.56-22.6s39.98,8.03,54.56,22.6c30.08,30.08,30.08,79.03,0,109.11l-70.77,70.77-15.16,30.07c-5.27,10.46-15.83,16.95-27.57,16.95Z"/>
              <path class="st9" d="M77.5,353.29c17.44,0,34.87,6.65,48.18,19.96h0c26.61,26.61,26.61,69.75,0,96.35l-71.79,71.79-15.81,31.37c-3.93,7.8-11.67,11.99-19.51,11.99-5.5,0-11.05-2.06-15.38-6.39l-58.66-58.66c-17.03-17.03-17.03-44.64,0-61.67l84.79-84.79c13.3-13.3,30.74-19.96,48.18-19.96M77.5,335.25c-23.02,0-44.66,8.96-60.94,25.24l-84.79,84.79c-24.04,24.04-24.04,63.15,0,87.18l58.66,58.66c7.53,7.53,17.52,11.67,28.13,11.67,15.16,0,28.81-8.4,35.62-21.91l14.51-28.78,69.74-69.74c16.28-16.28,25.24-37.92,25.24-60.94s-8.96-44.66-25.24-60.94c-16.28-16.28-37.92-25.24-60.94-25.24h0Z"/>
            </g>
            <g class="st1">
              <path class="st9" d="M3.19,578.37l-30.54-30.54c10.5,10.5,28.2,7.66,34.89-5.61l15.81-31.36,15.45-15.45c-21.49-8.8-41.62-21.92-59.05-39.36l-16.61-16.61,58.21-58.21c25.34-25.34,65.68-26.54,92.44-3.61,1.35,1.14,2.65,2.34,3.92,3.61,13.31,13.31,19.96,30.74,19.95,48.18,0,17.44-6.65,34.88-19.95,48.18l-63.81,63.81-15.81,31.36c-6.68,13.27-24.38,16.11-34.89,5.61Z"/>
            </g>
          </g>
          <g>
            <g>
              <g>
                <g>
                  <g>
                    <g>
                      <path class="st0" d="M33.97,125.23c-24.09,0-46.74-9.38-63.78-26.42s-26.42-39.69-26.42-63.78S-46.85-11.72-29.81-28.75s39.69-26.42,63.78-26.42,46.74,9.38,63.78,26.42c35.17,35.17,35.17,92.39,0,127.56-17.04,17.04-39.69,26.42-63.78,26.42Z"/>
                      <path class="st9" d="M33.97-47.17c21.04,0,42.07,8.03,58.12,24.08,32.1,32.1,32.1,84.14,0,116.24-16.05,16.05-37.09,24.08-58.12,24.08s-42.07-8.03-58.12-24.08c-32.1-32.1-32.1-84.14,0-116.24,16.05-16.05,37.09-24.08,58.12-24.08M33.97-63.17c-26.23,0-50.89,10.21-69.44,28.76-38.29,38.29-38.29,100.58,0,138.87,18.55,18.55,43.21,28.76,69.44,28.76s50.89-10.21,69.44-28.76c38.29-38.29,38.29-100.58,0-138.87-18.55-18.55-43.21-28.76-69.44-28.76h0Z"/>
                    </g>
                    <g>
                      <path class="st9" d="M33.97,88.11c-14.18,0-27.51-5.52-37.54-15.55C-24.27,51.87-24.27,18.19-3.57-2.51c10.03-10.03,23.36-15.55,37.54-15.55s27.51,5.52,37.54,15.55,15.55,23.36,15.55,37.54-5.52,27.51-15.55,37.54c-10.03,10.03-23.36,15.55-37.54,15.55Z"/>
                      <path class="st0" d="M33.97-11.29c11.85,0,23.71,4.52,32.75,13.57,18.09,18.09,18.09,47.42,0,65.51-9.04,9.04-20.9,13.57-32.75,13.57s-23.71-4.52-32.75-13.57C-16.87,49.69-16.87,20.36,1.21,2.27,10.26-6.77,22.11-11.29,33.97-11.29M33.97-24.82c-15.99,0-31.02,6.23-42.32,17.53-23.34,23.34-23.34,61.31,0,84.64,11.3,11.3,26.33,17.53,42.32,17.53s31.02-6.23,42.32-17.53c23.34-23.34,23.34-61.31,0-84.64-11.3-11.3-26.33-17.53-42.32-17.53h0Z"/>
                    </g>
                  </g>
                  <g class="st1">
                    <path class="st9" d="M-24.15-23.09c1.55-1.55,3.16-3.03,4.8-4.43C-46.94,4.77-45.47,53.37-14.92,83.92c30.55,30.55,79.15,32.02,111.44,4.43-1.4,1.64-2.88,3.25-4.43,4.8-32.09,32.09-84.14,32.1-116.24,0-32.1-32.1-32.09-84.15,0-116.24Z"/>
                  </g>
                </g>
                <g>
                  <g>
                    <path class="st0" d="M344.95,436.21c-24.09,0-46.74-9.38-63.78-26.42-35.17-35.17-35.17-92.39,0-127.56,17.04-17.04,39.69-26.42,63.78-26.42s46.74,9.38,63.78,26.42,26.42,39.69,26.42,63.78-9.38,46.74-26.42,63.78-39.69,26.42-63.78,26.42Z"/>
                    <path class="st9" d="M344.95,263.81c21.04,0,42.07,8.03,58.12,24.08,32.1,32.1,32.1,84.14,0,116.24-16.05,16.05-37.09,24.08-58.12,24.08s-42.07-8.03-58.12-24.08c-32.1-32.1-32.1-84.14,0-116.24,16.05-16.05,37.09-24.08,58.12-24.08M344.95,247.81c-26.23,0-50.89,10.21-69.44,28.76-38.29,38.29-38.29,100.58,0,138.87,18.55,18.55,43.21,28.76,69.44,28.76s50.89-10.21,69.44-28.76c38.29-38.29,38.29-100.58,0-138.87-18.55-18.55-43.21-28.76-69.44-28.76h0Z"/>
                  </g>
                  <g class="st1">
                    <circle class="st9" cx="344.95" cy="346.01" r="82.2"/>
                  </g>
                  <circle class="st9" cx="344.95" cy="346.01" r="46.32"/>
                </g>
              </g>
              <g>
                <g>
                  <g>
                    <path class="st0" d="M336.85,5.53v-125.3h8c34.55,0,62.65,28.1,62.65,62.65s-28.1,62.65-62.65,62.65h-8Z"/>
                    <path class="st9" d="M344.85-111.77c30.18,0,54.65,24.47,54.65,54.65S375.03-2.47,344.85-2.47v-109.3M344.85-127.77h-16V13.53h16c38.96,0,70.65-31.69,70.65-70.65s-31.69-70.65-70.65-70.65h0Z"/>
                  </g>
                  <g class="st1">
                    <path class="st9" d="M347.8-2.54c-.98.06-1.96.08-2.95.08v-13.49c17.36-8.46,29.57-25.85,30.65-46.18.06-.98.08-1.96.08-2.95,0-19.62-10.35-36.84-25.88-46.47,19.62,1.72,36.27,13.83,44.43,30.8,3.44,7.15,5.37,15.17,5.37,23.65,0,.99-.02,1.97-.08,2.95-1.48,27.83-23.79,50.14-51.62,51.62Z"/>
                  </g>
                  <g>
                    <path class="st0" d="M392.83,43.74c-24.4,0-47.33-9.5-64.58-26.75l-5.66-5.66,129.16-129.16,5.66,5.66c17.25,17.25,26.75,40.19,26.75,64.58s-9.5,47.33-26.75,64.58c-17.25,17.25-40.19,26.75-64.58,26.75Z"/>
                    <path class="st9" d="M451.76-106.51c32.54,32.54,32.54,85.3,0,117.85-16.27,16.27-37.6,24.41-58.92,24.41s-42.65-8.14-58.92-24.41l117.85-117.85M451.76-129.14l-11.31,11.31L322.59.02l-11.31,11.31,11.31,11.31c18.76,18.76,43.71,29.09,70.24,29.09s51.48-10.33,70.24-29.09c18.76-18.76,29.09-43.71,29.09-70.24,0-26.53-10.33-51.48-29.09-70.24l-11.31-11.31h0Z"/>
                  </g>
                  <g class="st1">
                    <path class="st9" d="M451.75,11.34c-26.25,26.25-65.66,31.33-96.99,15.23,25.76,4.42,53.19-3.32,73.07-23.2,27.02-27.02,31.61-67.97,13.77-99.71l10.16-10.16c32.54,32.54,32.53,85.3,0,117.85Z"/>
                  </g>
                </g>
                <g>
                  <path class="st0" d="M131.25,492.97c-50.33,0-97.65-19.6-133.24-55.19l-55.82-55.82c-73.47-73.47-73.47-193.01,0-266.48L159.08-101.4c20.68-20.68,48.18-32.07,77.42-32.07s56.74,11.39,77.42,32.07l167.45,167.45c20.68,20.68,32.07,48.18,32.07,77.42s-11.39,56.74-32.07,77.42l-216.89,216.89c-35.59,35.59-82.91,55.19-133.24,55.19Z"/>
                  <path class="st9" d="M236.5-125.47c25.97,0,51.95,9.91,71.76,29.73l167.45,167.45c39.63,39.63,39.63,103.9,0,143.53l-216.89,216.89c-35.23,35.23-81.41,52.85-127.58,52.85s-92.35-17.62-127.58-52.85l-55.82-55.82c-70.46-70.46-70.46-184.7,0-255.16L164.74-95.74c19.82-19.82,45.79-29.73,71.76-29.73M236.5-141.47c-31.38,0-60.89,12.22-83.08,34.41L-63.46,109.83c-18.75,18.75-33.26,40.61-43.15,64.99-9.54,23.54-14.38,48.4-14.38,73.91s4.84,50.37,14.38,73.91c9.89,24.38,24.4,46.24,43.15,64.99l55.82,55.82c18.75,18.75,40.61,33.26,64.99,43.15,23.54,9.54,48.4,14.38,73.91,14.38s50.37-4.84,73.91-14.38c24.38-9.89,46.24-24.4,64.99-43.15l216.89-216.89c22.19-22.19,34.41-51.7,34.41-83.08s-12.22-60.89-34.41-83.08l-167.45-167.45c-22.19-22.19-51.7-34.41-83.08-34.41h0Z"/>
                </g>
                <g class="st2">
                  <line class="st5" x1="135.12" y1="-24.59" x2="148.21" y2="-37.68"/>
                  <path class="st5" d="M172.4-61.88c36.95-36.95,93.33-38.84,131.59,5.76"/>
                </g>
                <g class="st1">
                  <path class="st9" d="M475.72,215.23l-216.89,216.89c-70.47,70.47-184.71,70.46-255.16,0l-55.82-55.82c-.63-.63-1.26-1.28-1.88-1.91,70.59,68.57,183.41,67.95,253.25-1.88l216.89-216.89c39.63-39.63,39.63-103.9,0-143.53l59.61,59.61c39.63,39.63,39.63,103.9,0,143.53Z"/>
                </g>
              </g>
            </g>
            <path class="st7" d="M330.44,310.76c-20.7,20.7-47.83,31.05-74.95,31.05-27.13,0-54.25-10.35-74.95-31.05l-5.29-5.29c-3.19,6.12-7.35,11.87-12.5,17.01l-7.18,7.18c-27.09,27.09-70.99,27.09-98.08,0l-7.18-7.18c-27.09-27.09-27.09-70.99,0-98.08l7.18-7.18c5.14-5.14,10.88-9.31,17.01-12.5l-5.29-5.29c-41.39-41.39-41.4-108.51,0-149.91,20.7-20.7,47.83-31.05,74.95-31.05,27.13,0,54.25,10.35,74.95,31.05l111.32,111.32c41.39,41.39,41.39,108.52,0,149.91Z"/>
            <path class="st9" d="M167.93,148.25c-16.74,16.74-43.86,16.74-60.6,0-16.74-16.74-16.74-43.86,0-60.6l60.6,60.6Z"/>
            <path class="st9" d="M293.95,274.27c-16.74,16.74-43.86,16.74-60.6,0-16.74-16.74-16.74-43.86,0-60.6l60.6,60.6Z"/>
            <rect class="st9" x="106.12" y="211.38" width="20.15" height="38.01" rx="10.08" ry="10.08"/>
            <rect class="st9" x="139.51" y="244.77" width="20.15" height="38.01" rx="10.08" ry="10.08" transform="translate(413.37 114.19) rotate(90)"/>
            <rect class="st8" x="322.86" y="123.61" width="31.42" height="90.76" rx="15.71" ry="15.71" transform="translate(697.47 49.07) rotate(135)"/>
            <rect class="st8" x="196.87" y="-2.38" width="31.42" height="90.76" rx="15.71" ry="15.71" transform="translate(393.31 -76.92) rotate(135)"/>
            <path class="st4" d="M155.71,358.93s-10.54-34.45-67.34-67.34c-56.8-32.89-67.34-67.34-67.34-67.34"/>
          </g>
        </g>
      </g>
    </g>
  </g>
</svg>